<svg xmlns="http://www.w3.org/2000/svg" viewBox="0 0 560 380" font-family="Manrope,sans-serif"><defs>
<linearGradient id="bg" x1="0%" y1="0%" x2="0%" y2="100%"><stop offset="0%" stop-color="#161921"/><stop offset="100%" stop-color="#0E0F14"/></linearGradient>
<linearGradient id="bgDark" x1="0%" y1="0%" x2="0%" y2="100%"><stop offset="0%" stop-color="#0a0b0f"/><stop offset="100%" stop-color="#0E0F14"/></linearGradient>
<linearGradient id="node" x1="0%" y1="0%" x2="100%" y2="100%"><stop offset="0%" stop-color="#B4CADC"/><stop offset="100%" stop-color="#7CA0C7"/></linearGradient>
<linearGradient id="nodeDark" x1="0%" y1="0%" x2="100%" y2="100%"><stop offset="0%" stop-color="#7CA0C7"/><stop offset="100%" stop-color="#3a546e"/></linearGradient>
<linearGradient id="accentGrad" x1="0%" y1="0%" x2="100%" y2="0%"><stop offset="0%" stop-color="#7CA0C7"/><stop offset="100%" stop-color="#B4CADC"/></linearGradient>
<linearGradient id="step1" x1="0%" y1="0%" x2="0%" y2="100%"><stop offset="0%" stop-color="#1c2029"/><stop offset="100%" stop-color="#171a22"/></linearGradient>
<linearGradient id="step2" x1="0%" y1="0%" x2="0%" y2="100%"><stop offset="0%" stop-color="#222632"/><stop offset="100%" stop-color="#1c2029"/></linearGradient>
<linearGradient id="step3" x1="0%" y1="0%" x2="0%" y2="100%"><stop offset="0%" stop-color="#B4CADC"/><stop offset="100%" stop-color="#7CA0C7"/></linearGradient>
<radialGradient id="centerGlow" cx="50%" cy="50%" r="50%"><stop offset="0%" stop-color="#7CA0C7" stop-opacity="0.4"/><stop offset="100%" stop-color="#7CA0C7" stop-opacity="0"/></radialGradient>
<radialGradient id="softGlow" cx="50%" cy="50%" r="50%"><stop offset="0%" stop-color="#B4CADC" stop-opacity="0.35"/><stop offset="100%" stop-color="#B4CADC" stop-opacity="0"/></radialGradient>
<filter id="dropShadow" x="-50%" y="-50%" width="200%" height="200%"><feGaussianBlur in="SourceAlpha" stdDeviation="4"/><feOffset dx="0" dy="6"/><feComponentTransfer><feFuncA type="linear" slope="0.5"/></feComponentTransfer><feMerge><feMergeNode/><feMergeNode in="SourceGraphic"/></feMerge></filter>
<filter id="softShadow" x="-50%" y="-50%" width="200%" height="200%"><feGaussianBlur in="SourceAlpha" stdDeviation="2"/><feOffset dx="0" dy="3"/><feComponentTransfer><feFuncA type="linear" slope="0.4"/></feComponentTransfer><feMerge><feMergeNode/><feMergeNode in="SourceGraphic"/></feMerge></filter>
<filter id="glow" x="-100%" y="-100%" width="300%" height="300%"><feGaussianBlur stdDeviation="3"/><feMerge><feMergeNode/><feMergeNode in="SourceGraphic"/></feMerge></filter>
<pattern id="dotgrid" x="0" y="0" width="20" height="20" patternUnits="userSpaceOnUse"><circle cx="2" cy="2" r="0.8" fill="#E7EAEF" opacity="0.06"/></pattern>
</defs>
<rect width="560" height="380" fill="url(#bg)"/>
<rect width="560" height="380" fill="url(#dotgrid)"/>
<text x="30" y="46" font-size="10" letter-spacing="2.5" fill="#B4CADC" font-family="JetBrains Mono,monospace">04 · SELF-ASSESSMENT</text>
<g transform="translate(40,90)" font-family="Manrope,sans-serif" font-size="13" fill="#E7EAEF">
<rect x="0" y="0" width="480" height="36" fill="#1A1E27" stroke="#2A2E37" filter="url(#softShadow)"/>
<rect x="14" y="11" width="14" height="14" fill="#B4CADC" filter="url(#glow)"/>
<path d="M17 18 L21 22 L26 14" fill="none" stroke="#0E0F14" stroke-width="2"/>
<text x="40" y="22">Operational Excellence</text>
<text x="380" y="22" font-family="JetBrains Mono,monospace" font-size="11" fill="#B4CADC">4/5</text>
<rect x="0" y="46" width="480" height="36" fill="#1A1E27" stroke="#2A2E37" filter="url(#softShadow)"/>
<rect x="14" y="57" width="14" height="14" fill="#B4CADC" filter="url(#glow)"/>
<path d="M17 64 L21 68 L26 60" fill="none" stroke="#0E0F14" stroke-width="2"/>
<text x="40" y="68">Pace of Product Evolution</text>
<text x="380" y="68" font-family="JetBrains Mono,monospace" font-size="11" fill="#B4CADC">3/5</text>
<rect x="0" y="92" width="480" height="36" fill="#1A1E27" stroke="#2A2E37" filter="url(#softShadow)"/>
<rect x="14" y="103" width="14" height="14" fill="#B4CADC" filter="url(#glow)"/>
<path d="M17 110 L21 114 L26 106" fill="none" stroke="#0E0F14" stroke-width="2"/>
<text x="40" y="114">Collaboration &amp; Alignment</text>
<text x="380" y="114" font-family="JetBrains Mono,monospace" font-size="11" fill="#B4CADC">3/5</text>
<rect x="0" y="138" width="480" height="36" fill="#1A1E27" stroke="#2A2E37" filter="url(#softShadow)"/>
<rect x="14" y="149" width="14" height="14" fill="#1A1E27" stroke="#B4CADC" stroke-width="1.4"/>
<text x="40" y="160" fill="#A8AEB8">Business Results</text>
<text x="380" y="160" font-family="JetBrains Mono,monospace" font-size="11" fill="#6B707A">PENDING</text>
<rect x="0" y="184" width="480" height="36" fill="#1A1E27" stroke="#2A2E37" filter="url(#softShadow)"/>
<rect x="14" y="195" width="14" height="14" fill="#1A1E27" stroke="#B4CADC" stroke-width="1.4"/>
<text x="40" y="206" fill="#A8AEB8">People &amp; Talent</text>
<text x="380" y="206" font-family="JetBrains Mono,monospace" font-size="11" fill="#6B707A">PENDING</text>
</g>
<g transform="translate(40,332)">
<rect x="0" y="0" width="480" height="6" fill="#2A2E37" rx="3"/>
<rect x="0" y="0" width="288" height="6" fill="url(#accentGrad)" rx="3" filter="url(#glow)"/>
<text x="0" y="-6" font-family="JetBrains Mono,monospace" font-size="9" letter-spacing="1.5" fill="#6B707A">60% COMPLETE · 20 MINS REMAINING</text>
</g>
</svg>