<svg xmlns="http://www.w3.org/2000/svg" viewBox="0 0 560 380" font-family="Manrope,sans-serif"><defs>
<linearGradient id="bg" x1="0%" y1="0%" x2="0%" y2="100%"><stop offset="0%" stop-color="#161921"/><stop offset="100%" stop-color="#0E0F14"/></linearGradient>
<linearGradient id="bgDark" x1="0%" y1="0%" x2="0%" y2="100%"><stop offset="0%" stop-color="#0a0b0f"/><stop offset="100%" stop-color="#0E0F14"/></linearGradient>
<linearGradient id="node" x1="0%" y1="0%" x2="100%" y2="100%"><stop offset="0%" stop-color="#B4CADC"/><stop offset="100%" stop-color="#7CA0C7"/></linearGradient>
<linearGradient id="nodeDark" x1="0%" y1="0%" x2="100%" y2="100%"><stop offset="0%" stop-color="#7CA0C7"/><stop offset="100%" stop-color="#3a546e"/></linearGradient>
<linearGradient id="accentGrad" x1="0%" y1="0%" x2="100%" y2="0%"><stop offset="0%" stop-color="#7CA0C7"/><stop offset="100%" stop-color="#B4CADC"/></linearGradient>
<linearGradient id="step1" x1="0%" y1="0%" x2="0%" y2="100%"><stop offset="0%" stop-color="#1c2029"/><stop offset="100%" stop-color="#171a22"/></linearGradient>
<linearGradient id="step2" x1="0%" y1="0%" x2="0%" y2="100%"><stop offset="0%" stop-color="#222632"/><stop offset="100%" stop-color="#1c2029"/></linearGradient>
<linearGradient id="step3" x1="0%" y1="0%" x2="0%" y2="100%"><stop offset="0%" stop-color="#B4CADC"/><stop offset="100%" stop-color="#7CA0C7"/></linearGradient>
<radialGradient id="centerGlow" cx="50%" cy="50%" r="50%"><stop offset="0%" stop-color="#7CA0C7" stop-opacity="0.4"/><stop offset="100%" stop-color="#7CA0C7" stop-opacity="0"/></radialGradient>
<radialGradient id="softGlow" cx="50%" cy="50%" r="50%"><stop offset="0%" stop-color="#B4CADC" stop-opacity="0.35"/><stop offset="100%" stop-color="#B4CADC" stop-opacity="0"/></radialGradient>
<filter id="dropShadow" x="-50%" y="-50%" width="200%" height="200%"><feGaussianBlur in="SourceAlpha" stdDeviation="4"/><feOffset dx="0" dy="6"/><feComponentTransfer><feFuncA type="linear" slope="0.5"/></feComponentTransfer><feMerge><feMergeNode/><feMergeNode in="SourceGraphic"/></feMerge></filter>
<filter id="softShadow" x="-50%" y="-50%" width="200%" height="200%"><feGaussianBlur in="SourceAlpha" stdDeviation="2"/><feOffset dx="0" dy="3"/><feComponentTransfer><feFuncA type="linear" slope="0.4"/></feComponentTransfer><feMerge><feMergeNode/><feMergeNode in="SourceGraphic"/></feMerge></filter>
<filter id="glow" x="-100%" y="-100%" width="300%" height="300%"><feGaussianBlur stdDeviation="3"/><feMerge><feMergeNode/><feMergeNode in="SourceGraphic"/></feMerge></filter>
<pattern id="dotgrid" x="0" y="0" width="20" height="20" patternUnits="userSpaceOnUse"><circle cx="2" cy="2" r="0.8" fill="#E7EAEF" opacity="0.06"/></pattern>
</defs>
<radialGradient id="radarFill" cx="50%" cy="50%" r="50%"><stop offset="0%" stop-color="#B4CADC" stop-opacity="0.45"/><stop offset="100%" stop-color="#B4CADC" stop-opacity="0.1"/></radialGradient>
<rect width="560" height="380" fill="url(#bg)"/>
<text x="30" y="46" font-size="10" letter-spacing="2.5" fill="#B4CADC" font-family="JetBrains Mono,monospace">02 · KRA FRAMEWORKS</text>
<g transform="translate(280,200)">
<polygon points="0,-100 95,-31 59,81 -59,81 -95,-31" fill="none" stroke="#2A2E37" stroke-width="0.8"/>
<polygon points="0,-66 63,-20 39,54 -39,54 -63,-20" fill="none" stroke="#2A2E37" stroke-width="0.5"/>
<polygon points="0,-33 32,-10 20,27 -20,27 -32,-10" fill="none" stroke="#2A2E37" stroke-width="0.5"/>
<g stroke="#2A2E37" stroke-width="0.4"><line x1="0" y1="0" x2="0" y2="-100"/><line x1="0" y1="0" x2="95" y2="-31"/><line x1="0" y1="0" x2="59" y2="81"/><line x1="0" y1="0" x2="-59" y2="81"/><line x1="0" y1="0" x2="-95" y2="-31"/></g>
<polygon points="0,-72 80,-26 35,48 -50,68 -77,-25" fill="url(#radarFill)" stroke="#B4CADC" stroke-width="1.6" filter="url(#glow)"/>
<g fill="#B4CADC" filter="url(#glow)"><circle cx="0" cy="-72" r="4"/><circle cx="80" cy="-26" r="4"/><circle cx="35" cy="48" r="4"/><circle cx="-50" cy="68" r="4"/><circle cx="-77" cy="-25" r="4"/></g>
<text x="0" y="-115" text-anchor="middle" font-size="9" letter-spacing="1.5" fill="#E7EAEF" font-family="JetBrains Mono,monospace">OPS</text>
<text x="120" y="-30" text-anchor="middle" font-size="9" letter-spacing="1.5" fill="#E7EAEF" font-family="JetBrains Mono,monospace">PACE</text>
<text x="74" y="105" text-anchor="middle" font-size="9" letter-spacing="1.5" fill="#E7EAEF" font-family="JetBrains Mono,monospace">ALIGN</text>
<text x="-74" y="105" text-anchor="middle" font-size="9" letter-spacing="1.5" fill="#E7EAEF" font-family="JetBrains Mono,monospace">RESULTS</text>
<text x="-120" y="-30" text-anchor="middle" font-size="9" letter-spacing="1.5" fill="#E7EAEF" font-family="JetBrains Mono,monospace">TALENT</text>
</g>
<text x="30" y="340" font-size="10" letter-spacing="1.5" fill="#6B707A" font-family="JetBrains Mono,monospace">ROLE-BY-ROLE KRAs · ALIGNED TO THE FOUR PIVOTS</text>
</svg>