<svg xmlns="http://www.w3.org/2000/svg" viewBox="0 0 560 380" font-family="Manrope,sans-serif"><defs>
<linearGradient id="bg" x1="0%" y1="0%" x2="0%" y2="100%"><stop offset="0%" stop-color="#161921"/><stop offset="100%" stop-color="#0E0F14"/></linearGradient>
<linearGradient id="bgDark" x1="0%" y1="0%" x2="0%" y2="100%"><stop offset="0%" stop-color="#0a0b0f"/><stop offset="100%" stop-color="#0E0F14"/></linearGradient>
<linearGradient id="node" x1="0%" y1="0%" x2="100%" y2="100%"><stop offset="0%" stop-color="#B4CADC"/><stop offset="100%" stop-color="#7CA0C7"/></linearGradient>
<linearGradient id="nodeDark" x1="0%" y1="0%" x2="100%" y2="100%"><stop offset="0%" stop-color="#7CA0C7"/><stop offset="100%" stop-color="#3a546e"/></linearGradient>
<linearGradient id="accentGrad" x1="0%" y1="0%" x2="100%" y2="0%"><stop offset="0%" stop-color="#7CA0C7"/><stop offset="100%" stop-color="#B4CADC"/></linearGradient>
<linearGradient id="step1" x1="0%" y1="0%" x2="0%" y2="100%"><stop offset="0%" stop-color="#1c2029"/><stop offset="100%" stop-color="#171a22"/></linearGradient>
<linearGradient id="step2" x1="0%" y1="0%" x2="0%" y2="100%"><stop offset="0%" stop-color="#222632"/><stop offset="100%" stop-color="#1c2029"/></linearGradient>
<linearGradient id="step3" x1="0%" y1="0%" x2="0%" y2="100%"><stop offset="0%" stop-color="#B4CADC"/><stop offset="100%" stop-color="#7CA0C7"/></linearGradient>
<radialGradient id="centerGlow" cx="50%" cy="50%" r="50%"><stop offset="0%" stop-color="#7CA0C7" stop-opacity="0.4"/><stop offset="100%" stop-color="#7CA0C7" stop-opacity="0"/></radialGradient>
<radialGradient id="softGlow" cx="50%" cy="50%" r="50%"><stop offset="0%" stop-color="#B4CADC" stop-opacity="0.35"/><stop offset="100%" stop-color="#B4CADC" stop-opacity="0"/></radialGradient>
<filter id="dropShadow" x="-50%" y="-50%" width="200%" height="200%"><feGaussianBlur in="SourceAlpha" stdDeviation="4"/><feOffset dx="0" dy="6"/><feComponentTransfer><feFuncA type="linear" slope="0.5"/></feComponentTransfer><feMerge><feMergeNode/><feMergeNode in="SourceGraphic"/></feMerge></filter>
<filter id="softShadow" x="-50%" y="-50%" width="200%" height="200%"><feGaussianBlur in="SourceAlpha" stdDeviation="2"/><feOffset dx="0" dy="3"/><feComponentTransfer><feFuncA type="linear" slope="0.4"/></feComponentTransfer><feMerge><feMergeNode/><feMergeNode in="SourceGraphic"/></feMerge></filter>
<filter id="glow" x="-100%" y="-100%" width="300%" height="300%"><feGaussianBlur stdDeviation="3"/><feMerge><feMergeNode/><feMergeNode in="SourceGraphic"/></feMerge></filter>
<pattern id="dotgrid" x="0" y="0" width="20" height="20" patternUnits="userSpaceOnUse"><circle cx="2" cy="2" r="0.8" fill="#E7EAEF" opacity="0.06"/></pattern>
</defs>
<rect width="560" height="380" fill="url(#bg)"/>
<text x="30" y="46" font-size="10" letter-spacing="2.5" fill="#B4CADC" font-family="JetBrains Mono,monospace">06 · WHITEPAPERS</text>
<g transform="translate(280,200)">
<g transform="rotate(-6) translate(0,4)" filter="url(#dropShadow)">
<rect x="-86" y="-104" width="172" height="208" fill="#1A1E27" stroke="#2A2E37"/>
<rect x="-86" y="-104" width="172" height="22" fill="#21262F"/>
<line x1="-66" y1="-72" x2="66" y2="-72" stroke="#2A2E37"/>
<line x1="-66" y1="-54" x2="66" y2="-54" stroke="#2A2E37"/>
<line x1="-66" y1="-36" x2="46" y2="-36" stroke="#2A2E37"/>
</g>
<g transform="rotate(3) translate(0,2)" filter="url(#dropShadow)">
<rect x="-86" y="-104" width="172" height="208" fill="#1A1E27" stroke="#7CA0C7"/>
<rect x="-86" y="-104" width="172" height="22" fill="#7CA0C7" opacity="0.3"/>
<line x1="-66" y1="-72" x2="66" y2="-72" stroke="#7CA0C7"/>
<line x1="-66" y1="-54" x2="66" y2="-54" stroke="#7CA0C7"/>
<line x1="-66" y1="-36" x2="50" y2="-36" stroke="#7CA0C7"/>
</g>
<g filter="url(#dropShadow)">
<rect x="-86" y="-104" width="172" height="208" fill="#1A1E27" stroke="#B4CADC" stroke-width="1.4"/>
<rect x="-86" y="-104" width="172" height="26" fill="#B4CADC"/>
<text x="-72" y="-86" font-size="10" letter-spacing="1.5" fill="#0E0F14" font-family="JetBrains Mono,monospace">EMB FRAMEWORK</text>
<text x="-68" y="-58" font-family="Manrope,sans-serif" font-size="13" font-weight="500" fill="#E7EAEF">The benchmark</text>
<text x="-68" y="-42" font-family="Manrope,sans-serif" font-size="13" font-weight="500" fill="#E7EAEF">that scales.</text>
<line x1="-68" y1="-26" x2="48" y2="-26" stroke="#B4CADC" stroke-width="1.5"/>
<line x1="-68" y1="-10" x2="68" y2="-10" stroke="#2A2E37"/>
<line x1="-68" y1="6" x2="58" y2="6" stroke="#2A2E37"/>
<line x1="-68" y1="22" x2="68" y2="22" stroke="#2A2E37"/>
<line x1="-68" y1="38" x2="40" y2="38" stroke="#2A2E37"/>
<line x1="-68" y1="54" x2="68" y2="54" stroke="#2A2E37"/>
<line x1="-68" y1="70" x2="50" y2="70" stroke="#2A2E37"/>
<text x="-68" y="92" font-size="9" letter-spacing="1.5" fill="#6B707A" font-family="JetBrains Mono,monospace">24 PAGES · MEMBERS</text>
</g>
</g>
<text x="30" y="340" font-size="10" letter-spacing="1.5" fill="#6B707A" font-family="JetBrains Mono,monospace">IN-DEPTH FRAMEWORKS &amp; RESEARCH</text>
</svg>