<svg xmlns="http://www.w3.org/2000/svg" viewBox="0 0 360 240" font-family="'Manrope','Segoe UI',system-ui,sans-serif">
<defs>
<linearGradient id="pg" x1="0" y1="0" x2="0" y2="1"><stop offset="0" stop-color="#181B22"/><stop offset="1" stop-color="#0E0F14"/></linearGradient>
<linearGradient id="acc" x1="0" y1="0" x2="1" y2="1"><stop offset="0" stop-color="#73D9B9"/><stop offset="1" stop-color="#2dd4bf"/></linearGradient>
<radialGradient id="halo" cx="0.5" cy="0.5" r="0.5"><stop offset="0" stop-color="#2dd4bf" stop-opacity="0.16"/><stop offset="1" stop-color="#2dd4bf" stop-opacity="0"/></radialGradient>
<filter id="sh" x="-30%" y="-30%" width="160%" height="160%"><feGaussianBlur in="SourceAlpha" stdDeviation="5"/><feOffset dy="7"/><feComponentTransfer><feFuncA type="linear" slope="0.10"/></feComponentTransfer><feMerge><feMergeNode/><feMergeNode in="SourceGraphic"/></feMerge></filter>
</defs>
<rect width="360" height="240" fill="url(#pg)"/>
<g stroke="#272B34" stroke-width="1" opacity="0.45"><line x1="32" y1="0" x2="32" y2="240"/><line x1="64" y1="0" x2="64" y2="240"/><line x1="96" y1="0" x2="96" y2="240"/><line x1="128" y1="0" x2="128" y2="240"/><line x1="160" y1="0" x2="160" y2="240"/><line x1="192" y1="0" x2="192" y2="240"/><line x1="224" y1="0" x2="224" y2="240"/><line x1="256" y1="0" x2="256" y2="240"/><line x1="288" y1="0" x2="288" y2="240"/><line x1="320" y1="0" x2="320" y2="240"/><line x1="352" y1="0" x2="352" y2="240"/><line x1="0" y1="32" x2="360" y2="32"/><line x1="0" y1="64" x2="360" y2="64"/><line x1="0" y1="96" x2="360" y2="96"/><line x1="0" y1="128" x2="360" y2="128"/><line x1="0" y1="160" x2="360" y2="160"/><line x1="0" y1="192" x2="360" y2="192"/><line x1="0" y1="224" x2="360" y2="224"/></g>
<g stroke="#6A6F79" stroke-width="1" opacity="0.6" fill="none"><path d="M28 37 V28 H37"/><path d="M323 28 H332 V37"/><path d="M28 203 V212 H37"/><path d="M332 203 V212 H323"/></g><text x="28" y="40" font-family="'JetBrains Mono','SFMono-Regular',ui-monospace,monospace" font-size="9.5" letter-spacing="2.2" fill="#2dd4bf">02 · PACE OF PRODUCT</text><circle cx="180" cy="118" r="52" fill="url(#halo)"/><circle cx="180" cy="118" r="44" fill="none" stroke="#272B34" stroke-width="1.2"/><g stroke="#2dd4bf" stroke-width="1.6" fill="none"><line x1="195.0" y1="118.0" x2="199.0" y2="118.0"/><line x1="190.6" y1="128.6" x2="193.4" y2="131.4"/><line x1="180.0" y1="133.0" x2="180.0" y2="137.0"/><line x1="169.4" y1="128.6" x2="166.6" y2="131.4"/><line x1="165.0" y1="118.0" x2="161.0" y2="118.0"/><line x1="169.4" y1="107.4" x2="166.6" y2="104.6"/><line x1="180.0" y1="103.0" x2="180.0" y2="99.0"/><line x1="190.6" y1="107.4" x2="193.4" y2="104.6"/><circle cx="180" cy="118" r="15.0"/><circle cx="180" cy="118" r="5.1"/></g><path d="M180 90.4 A 27.6 27.6 0 0 1 207.6 118" fill="none" stroke="#73D9B9" stroke-width="1.8"/><path d="M207.6 118 l8 -3 l-3 9 z" fill="#73D9B9"/><path d="M180 145.6 A 27.6 27.6 0 0 1 152.4 118" fill="none" stroke="#73D9B9" stroke-width="1.8"/><path d="M152.4 118 l-8 3 l3 -9 z" fill="#73D9B9"/><line x1="28" y1="202" x2="228" y2="202" stroke="#272B34" stroke-width="1"/><text x="28" y="218" font-family="'Manrope','Segoe UI',system-ui,sans-serif" font-size="12.5" font-weight="600" fill="#E7EAEF">Pace of Product Evolution</text><text x="28" y="233" font-family="'JetBrains Mono','SFMono-Regular',ui-monospace,monospace" font-size="8.5" letter-spacing="1.4" fill="#6A6F79">innovate &amp; adapt products</text></svg>