<svg xmlns="http://www.w3.org/2000/svg" viewBox="0 0 360 244" font-family="'Manrope','Segoe UI',system-ui,sans-serif">
<defs>
<linearGradient id="pg" x1="0" y1="0" x2="0" y2="1"><stop offset="0" stop-color="#181B22"/><stop offset="1" stop-color="#0E0F14"/></linearGradient>
<linearGradient id="acc" x1="0" y1="0" x2="1" y2="1"><stop offset="0" stop-color="#73D9B9"/><stop offset="1" stop-color="#46C79E"/></linearGradient>
<radialGradient id="halo" cx="0.5" cy="0.5" r="0.5"><stop offset="0" stop-color="#46C79E" stop-opacity="0.16"/><stop offset="1" stop-color="#46C79E" stop-opacity="0"/></radialGradient>
<filter id="sh" x="-30%" y="-30%" width="160%" height="160%"><feGaussianBlur in="SourceAlpha" stdDeviation="5"/><feOffset dy="7"/><feComponentTransfer><feFuncA type="linear" slope="0.10"/></feComponentTransfer><feMerge><feMergeNode/><feMergeNode in="SourceGraphic"/></feMerge></filter>
</defs>
<rect width="360" height="244" fill="url(#pg)"/>
<g stroke="#272B34" stroke-width="1" opacity="0.45"><line x1="32" y1="0" x2="32" y2="244"/><line x1="64" y1="0" x2="64" y2="244"/><line x1="96" y1="0" x2="96" y2="244"/><line x1="128" y1="0" x2="128" y2="244"/><line x1="160" y1="0" x2="160" y2="244"/><line x1="192" y1="0" x2="192" y2="244"/><line x1="224" y1="0" x2="224" y2="244"/><line x1="256" y1="0" x2="256" y2="244"/><line x1="288" y1="0" x2="288" y2="244"/><line x1="320" y1="0" x2="320" y2="244"/><line x1="352" y1="0" x2="352" y2="244"/><line x1="0" y1="32" x2="360" y2="32"/><line x1="0" y1="64" x2="360" y2="64"/><line x1="0" y1="96" x2="360" y2="96"/><line x1="0" y1="128" x2="360" y2="128"/><line x1="0" y1="160" x2="360" y2="160"/><line x1="0" y1="192" x2="360" y2="192"/><line x1="0" y1="224" x2="360" y2="224"/></g>
<g stroke="#6A6F79" stroke-width="1" opacity="0.6" fill="none"><path d="M26 35 V26 H35"/><path d="M325 26 H334 V35"/><path d="M26 209 V218 H35"/><path d="M334 209 V218 H325"/></g><text x="28" y="36" font-family="'JetBrains Mono','SFMono-Regular',ui-monospace,monospace" font-size="9.5" letter-spacing="2.2" fill="#46C79E">02 · R&amp;R MATRIX</text><path d="M22 58 h60 l12 16.0 l-12 16.0 h-60 z" fill="#46C79E"/><text x="52" y="70.0" text-anchor="middle" font-family="'JetBrains Mono','SFMono-Regular',ui-monospace,monospace" font-size="6.8" letter-spacing="0.3" fill="#181B22">Senior</text><text x="52" y="80.0" text-anchor="middle" font-family="'JetBrains Mono','SFMono-Regular',ui-monospace,monospace" font-size="6.8" letter-spacing="0.3" fill="#181B22">Leadership</text><path d="M22 98 h60 l12 16.0 l-12 16.0 h-60 z" fill="#73D9B9"/><text x="52" y="110.0" text-anchor="middle" font-family="'JetBrains Mono','SFMono-Regular',ui-monospace,monospace" font-size="6.8" letter-spacing="0.3" fill="#181B22">Architects &amp;</text><text x="52" y="120.0" text-anchor="middle" font-family="'JetBrains Mono','SFMono-Regular',ui-monospace,monospace" font-size="6.8" letter-spacing="0.3" fill="#181B22">Middle Mgmt</text><path d="M22 138 h60 l12 16.0 l-12 16.0 h-60 z" fill="#2C6857"/><text x="52" y="150.0" text-anchor="middle" font-family="'JetBrains Mono','SFMono-Regular',ui-monospace,monospace" font-size="6.8" letter-spacing="0.3" fill="#A2A8B2">High Competency</text><text x="52" y="160.0" text-anchor="middle" font-family="'JetBrains Mono','SFMono-Regular',ui-monospace,monospace" font-size="6.8" letter-spacing="0.3" fill="#A2A8B2">Engineers</text><path d="M22 178 h60 l12 16.0 l-12 16.0 h-60 z" fill="#20242E"/><text x="52" y="190.0" text-anchor="middle" font-family="'JetBrains Mono','SFMono-Regular',ui-monospace,monospace" font-size="6.8" letter-spacing="0.3" fill="#A2A8B2">Engineering</text><text x="52" y="200.0" text-anchor="middle" font-family="'JetBrains Mono','SFMono-Regular',ui-monospace,monospace" font-size="6.8" letter-spacing="0.3" fill="#A2A8B2">Roles</text><rect x="108" y="57" width="224" height="34" rx="3" fill="#1A1E27" stroke="#272B34" stroke-width="1"/><circle cx="126" cy="73.0" r="9.0" fill="none" stroke="#46C79E" stroke-width="1.6"/><circle cx="126" cy="73.0" r="5.9" fill="none" stroke="#73D9B9" stroke-width="1.6"/><circle cx="126" cy="73.0" r="3.0" fill="none" stroke="#46C79E" stroke-width="1.6"/><circle cx="126" cy="73.0" r="2.4" fill="#46C79E"/><path d="M134.1 64.9 l-4.95 4.95" stroke="#46C79E" stroke-width="2" stroke-linecap="round"/><path d="M134.1 64.9 l-2 8 l-6 -6 z" fill="#46C79E"/><text x="146" y="76.0" font-family="'Manrope','Segoe UI',system-ui,sans-serif" font-size="10.5" font-weight="600" fill="#E7EAEF">Business Result</text><line x1="108" y1="91" x2="332" y2="91" stroke="#1C2028" stroke-width="1"/><rect x="108" y="97" width="224" height="34" rx="3" fill="#1A1E27" stroke="#272B34" stroke-width="1"/><circle cx="120.4" cy="110.6" r="2.7" fill="none" stroke="#46C79E" stroke-width="1.6"/><path d="M116.6 118.1 a 3.8 3.5 0 0 1 7.6 0" fill="none" stroke="#46C79E" stroke-width="1.6"/><circle cx="131.6" cy="110.6" r="2.7" fill="none" stroke="#46C79E" stroke-width="1.6"/><path d="M127.8 118.1 a 3.8 3.5 0 0 1 7.6 0" fill="none" stroke="#46C79E" stroke-width="1.6"/><circle cx="126.0" cy="107.3" r="3.2" fill="none" stroke="#46C79E" stroke-width="1.6"/><path d="M121.5 116.4 a 4.5 4.2 0 0 1 9.1 0" fill="none" stroke="#46C79E" stroke-width="1.6"/><text x="146" y="116.0" font-family="'Manrope','Segoe UI',system-ui,sans-serif" font-size="10.5" font-weight="600" fill="#E7EAEF">Cross-Team Collaboration</text><line x1="108" y1="131" x2="332" y2="131" stroke="#1C2028" stroke-width="1"/><rect x="108" y="137" width="224" height="34" rx="3" fill="#1A1E27" stroke="#272B34" stroke-width="1"/><g stroke="#46C79E" stroke-width="1.6" fill="none"><line x1="130.5" y1="153.0" x2="134.5" y2="153.0"/><line x1="129.2" y1="156.2" x2="132.0" y2="159.0"/><line x1="126.0" y1="157.5" x2="126.0" y2="161.5"/><line x1="122.8" y1="156.2" x2="120.0" y2="159.0"/><line x1="121.5" y1="153.0" x2="117.5" y2="153.0"/><line x1="122.8" y1="149.8" x2="120.0" y2="147.0"/><line x1="126.0" y1="148.5" x2="126.0" y2="144.5"/><line x1="129.2" y1="149.8" x2="132.0" y2="147.0"/><circle cx="126" cy="153.0" r="4.5"/><circle cx="126" cy="153.0" r="1.5"/></g><path d="M126 144.72 A 8.280000000000001 8.280000000000001 0 0 1 134.28 153.0" fill="none" stroke="#73D9B9" stroke-width="1.8"/><path d="M134.28 153.0 l8 -3 l-3 9 z" fill="#73D9B9"/><path d="M126 161.28 A 8.280000000000001 8.280000000000001 0 0 1 117.72 153.0" fill="none" stroke="#73D9B9" stroke-width="1.8"/><path d="M117.72 153.0 l-8 3 l3 -9 z" fill="#73D9B9"/><text x="146" y="156.0" font-family="'Manrope','Segoe UI',system-ui,sans-serif" font-size="10.5" font-weight="600" fill="#E7EAEF">Pace of Product</text><line x1="108" y1="171" x2="332" y2="171" stroke="#1C2028" stroke-width="1"/><rect x="108" y="177" width="224" height="34" rx="3" fill="#1A1E27" stroke="#272B34" stroke-width="1"/><g stroke="#46C79E" stroke-width="1.6" fill="none"><line x1="127.4" y1="195.0" x2="131.4" y2="195.0"/><line x1="125.8" y1="198.8" x2="128.6" y2="201.6"/><line x1="122.0" y1="200.4" x2="122.0" y2="204.4"/><line x1="118.2" y1="198.8" x2="115.4" y2="201.6"/><line x1="116.6" y1="195.0" x2="112.6" y2="195.0"/><line x1="118.2" y1="191.2" x2="115.4" y2="188.4"/><line x1="122.0" y1="189.6" x2="122.0" y2="185.6"/><line x1="125.8" y1="191.2" x2="128.6" y2="188.4"/><circle cx="122" cy="195.0" r="5.3999999999999995"/><circle cx="122" cy="195.0" r="1.8"/></g><path d="M126.9 193.0 l1.98 2.16 l3.6 -4.5" fill="none" stroke="#46C79E" stroke-width="2.2" stroke-linecap="round" stroke-linejoin="round"/><text x="146" y="196.0" font-family="'Manrope','Segoe UI',system-ui,sans-serif" font-size="10.5" font-weight="600" fill="#E7EAEF">Operational Excellence</text><line x1="108" y1="211" x2="332" y2="211" stroke="#1C2028" stroke-width="1"/></svg>