<svg xmlns="http://www.w3.org/2000/svg" viewBox="0 0 360 244" font-family="'Manrope','Segoe UI',system-ui,sans-serif">
<defs>
<linearGradient id="pg" x1="0" y1="0" x2="0" y2="1"><stop offset="0" stop-color="#FFFFFF"/><stop offset="1" stop-color="#F4F4F1"/></linearGradient>
<linearGradient id="acc" x1="0" y1="0" x2="1" y2="1"><stop offset="0" stop-color="#14b8a6"/><stop offset="1" stop-color="#0d9488"/></linearGradient>
<radialGradient id="halo" cx="0.5" cy="0.5" r="0.5"><stop offset="0" stop-color="#0d9488" stop-opacity="0.16"/><stop offset="1" stop-color="#0d9488" stop-opacity="0"/></radialGradient>
<filter id="sh" x="-30%" y="-30%" width="160%" height="160%"><feGaussianBlur in="SourceAlpha" stdDeviation="5"/><feOffset dy="7"/><feComponentTransfer><feFuncA type="linear" slope="0.10"/></feComponentTransfer><feMerge><feMergeNode/><feMergeNode in="SourceGraphic"/></feMerge></filter>
</defs>
<rect width="360" height="244" fill="url(#pg)"/>
<g stroke="#E2E2DD" stroke-width="1" opacity="0.45"><line x1="32" y1="0" x2="32" y2="244"/><line x1="64" y1="0" x2="64" y2="244"/><line x1="96" y1="0" x2="96" y2="244"/><line x1="128" y1="0" x2="128" y2="244"/><line x1="160" y1="0" x2="160" y2="244"/><line x1="192" y1="0" x2="192" y2="244"/><line x1="224" y1="0" x2="224" y2="244"/><line x1="256" y1="0" x2="256" y2="244"/><line x1="288" y1="0" x2="288" y2="244"/><line x1="320" y1="0" x2="320" y2="244"/><line x1="352" y1="0" x2="352" y2="244"/><line x1="0" y1="32" x2="360" y2="32"/><line x1="0" y1="64" x2="360" y2="64"/><line x1="0" y1="96" x2="360" y2="96"/><line x1="0" y1="128" x2="360" y2="128"/><line x1="0" y1="160" x2="360" y2="160"/><line x1="0" y1="192" x2="360" y2="192"/><line x1="0" y1="224" x2="360" y2="224"/></g>
<g stroke="#9AA0A8" stroke-width="1" opacity="0.6" fill="none"><path d="M26 35 V26 H35"/><path d="M325 26 H334 V35"/><path d="M26 209 V218 H35"/><path d="M334 209 V218 H325"/></g><text x="28" y="38" font-family="'JetBrains Mono','SFMono-Regular',ui-monospace,monospace" font-size="9.5" letter-spacing="2.2" fill="#0d9488">03 · SETUP PLAYBOOKS</text><rect x="16" y="76" width="88" height="32" rx="3" fill="url(#acc)"/><text x="60" y="96" text-anchor="middle" font-family="'JetBrains Mono','SFMono-Regular',ui-monospace,monospace" font-size="8.5" letter-spacing="1" fill="#FFFFFF">SETUP?</text><path d="M104 92 C 150 92, 150 60, 154 60" fill="none" stroke="#14b8a6" stroke-width="1.3"/><rect x="154" y="46" width="120" height="28" rx="3" fill="#FFFFFF" stroke="#E2E2DD" stroke-width="1.2"/><circle cx="168" cy="60" r="3" fill="#14b8a6"/><text x="178" y="64" font-family="'JetBrains Mono','SFMono-Regular',ui-monospace,monospace" font-size="8.5" letter-spacing="1" fill="#5A5E66">CAPTIVE</text><path d="M104 92 C 150 92, 150 124, 154 124" fill="none" stroke="#14b8a6" stroke-width="1.3"/><rect x="154" y="110" width="120" height="28" rx="3" fill="#FFFFFF" stroke="#E2E2DD" stroke-width="1.2"/><circle cx="168" cy="124" r="3" fill="#14b8a6"/><text x="178" y="128" font-family="'JetBrains Mono','SFMono-Regular',ui-monospace,monospace" font-size="8.5" letter-spacing="1" fill="#5A5E66">HYBRID</text><path d="M104 92 C 150 92, 150 188, 154 188" fill="none" stroke="#14b8a6" stroke-width="1.3"/><rect x="154" y="174" width="120" height="28" rx="3" fill="#FFFFFF" stroke="#E2E2DD" stroke-width="1.2"/><circle cx="168" cy="188" r="3" fill="#14b8a6"/><text x="178" y="192" font-family="'JetBrains Mono','SFMono-Regular',ui-monospace,monospace" font-size="8.5" letter-spacing="1" fill="#5A5E66">VENDOR</text></svg>