<svg xmlns="http://www.w3.org/2000/svg" viewBox="0 0 500 640" font-family="'Manrope','Segoe UI',system-ui,sans-serif">
<defs>
<linearGradient id="pg" x1="0" y1="0" x2="0" y2="1"><stop offset="0" stop-color="#FFFFFF"/><stop offset="1" stop-color="#F4F4F1"/></linearGradient>
<linearGradient id="acc" x1="0" y1="0" x2="1" y2="1"><stop offset="0" stop-color="#2FA98A"/><stop offset="1" stop-color="#12876A"/></linearGradient>
<radialGradient id="halo" cx="0.5" cy="0.5" r="0.5"><stop offset="0" stop-color="#12876A" stop-opacity="0.16"/><stop offset="1" stop-color="#12876A" stop-opacity="0"/></radialGradient>
<filter id="sh" x="-30%" y="-30%" width="160%" height="160%"><feGaussianBlur in="SourceAlpha" stdDeviation="5"/><feOffset dy="7"/><feComponentTransfer><feFuncA type="linear" slope="0.10"/></feComponentTransfer><feMerge><feMergeNode/><feMergeNode in="SourceGraphic"/></feMerge></filter>
</defs>
<rect width="500" height="640" fill="url(#pg)"/>
<g stroke="#E2E2DD" stroke-width="1" opacity="0.45"><line x1="32" y1="0" x2="32" y2="640"/><line x1="64" y1="0" x2="64" y2="640"/><line x1="96" y1="0" x2="96" y2="640"/><line x1="128" y1="0" x2="128" y2="640"/><line x1="160" y1="0" x2="160" y2="640"/><line x1="192" y1="0" x2="192" y2="640"/><line x1="224" y1="0" x2="224" y2="640"/><line x1="256" y1="0" x2="256" y2="640"/><line x1="288" y1="0" x2="288" y2="640"/><line x1="320" y1="0" x2="320" y2="640"/><line x1="352" y1="0" x2="352" y2="640"/><line x1="384" y1="0" x2="384" y2="640"/><line x1="416" y1="0" x2="416" y2="640"/><line x1="448" y1="0" x2="448" y2="640"/><line x1="480" y1="0" x2="480" y2="640"/><line x1="0" y1="32" x2="500" y2="32"/><line x1="0" y1="64" x2="500" y2="64"/><line x1="0" y1="96" x2="500" y2="96"/><line x1="0" y1="128" x2="500" y2="128"/><line x1="0" y1="160" x2="500" y2="160"/><line x1="0" y1="192" x2="500" y2="192"/><line x1="0" y1="224" x2="500" y2="224"/><line x1="0" y1="256" x2="500" y2="256"/><line x1="0" y1="288" x2="500" y2="288"/><line x1="0" y1="320" x2="500" y2="320"/><line x1="0" y1="352" x2="500" y2="352"/><line x1="0" y1="384" x2="500" y2="384"/><line x1="0" y1="416" x2="500" y2="416"/><line x1="0" y1="448" x2="500" y2="448"/><line x1="0" y1="480" x2="500" y2="480"/><line x1="0" y1="512" x2="500" y2="512"/><line x1="0" y1="544" x2="500" y2="544"/><line x1="0" y1="576" x2="500" y2="576"/><line x1="0" y1="608" x2="500" y2="608"/></g>
<g stroke="#9AA0A8" stroke-width="1" opacity="0.6" fill="none"><path d="M30 39 V30 H39"/><path d="M461 30 H470 V39"/><path d="M30 601 V610 H39"/><path d="M470 601 V610 H461"/></g><text x="34" y="50" font-family="'JetBrains Mono','SFMono-Regular',ui-monospace,monospace" font-size="9.5" letter-spacing="2.2" fill="#12876A">COMPETENCY MATURITY MODEL</text><path d="M46.0 494 V108" stroke="#12876A" stroke-width="1.4" stroke-dasharray="3 3"/><path d="M46.0 102 l-5 11 l10 0 Z" fill="#12876A"/><circle cx="46.0" cy="159.0" r="22" fill="#FFFFFF" stroke="#12876A" stroke-width="2.4"/><circle cx="46.0" cy="159.0" r="27" fill="none" stroke="#2FA98A" stroke-width="1" opacity="0.7"/><text x="46.0" y="163.0" text-anchor="middle" font-family="'Manrope','Segoe UI',system-ui,sans-serif" font-size="13" font-weight="700" fill="#12876A">L3</text><rect x="87.0" y="98" width="90.5" height="122" rx="3" fill="url(#acc)" stroke="#E2E2DD" stroke-width="1"/><text x="132.25" y="152" text-anchor="middle" font-family="'Manrope','Segoe UI',system-ui,sans-serif" font-size="9.5" fill="#FFFFFF">Product</text><text x="132.25" y="164" text-anchor="middle" font-family="'Manrope','Segoe UI',system-ui,sans-serif" font-size="9.5" fill="#FFFFFF">roadmap</text><rect x="183.5" y="98" width="90.5" height="122" rx="3" fill="url(#acc)" stroke="#E2E2DD" stroke-width="1"/><text x="228.75" y="152" text-anchor="middle" font-family="'Manrope','Segoe UI',system-ui,sans-serif" font-size="9.5" fill="#FFFFFF">Presales</text><text x="228.75" y="164" text-anchor="middle" font-family="'Manrope','Segoe UI',system-ui,sans-serif" font-size="9.5" fill="#FFFFFF">support</text><rect x="280.0" y="98" width="90.5" height="122" rx="3" fill="url(#acc)" stroke="#E2E2DD" stroke-width="1"/><text x="325.25" y="152" text-anchor="middle" font-family="'Manrope','Segoe UI',system-ui,sans-serif" font-size="9.5" fill="#FFFFFF">Strategic</text><text x="325.25" y="164" text-anchor="middle" font-family="'Manrope','Segoe UI',system-ui,sans-serif" font-size="9.5" fill="#FFFFFF">initiatives</text><rect x="376.5" y="98" width="90.5" height="122" rx="3" fill="url(#acc)" stroke="#E2E2DD" stroke-width="1"/><text x="421.75" y="145" text-anchor="middle" font-family="'Manrope','Segoe UI',system-ui,sans-serif" font-size="9.5" fill="#FFFFFF">Enter new</text><text x="421.75" y="158" text-anchor="middle" font-family="'Manrope','Segoe UI',system-ui,sans-serif" font-size="9.5" fill="#FFFFFF">market</text><text x="421.75" y="170" text-anchor="middle" font-family="'Manrope','Segoe UI',system-ui,sans-serif" font-size="9.5" fill="#FFFFFF">affordably</text><circle cx="46.0" cy="297.0" r="22" fill="#FFFFFF" stroke="#E2E2DD" stroke-width="1.4"/><circle cx="46.0" cy="297.0" r="27" fill="none" stroke="#E2E2DD" stroke-width="1" opacity="0.7"/><text x="46.0" y="301.0" text-anchor="middle" font-family="'Manrope','Segoe UI',system-ui,sans-serif" font-size="13" font-weight="700" fill="#12876A">L2</text><rect x="87.0" y="236" width="90.5" height="122" rx="3" fill="#2FA98A" stroke="#E2E2DD" stroke-width="1"/><text x="132.25" y="290" text-anchor="middle" font-family="'Manrope','Segoe UI',system-ui,sans-serif" font-size="9.5" fill="#FFFFFF">Product</text><text x="132.25" y="302" text-anchor="middle" font-family="'Manrope','Segoe UI',system-ui,sans-serif" font-size="9.5" fill="#FFFFFF">delivery</text><rect x="183.5" y="236" width="90.5" height="122" rx="3" fill="#2FA98A" stroke="#E2E2DD" stroke-width="1"/><text x="228.75" y="290" text-anchor="middle" font-family="'Manrope','Segoe UI',system-ui,sans-serif" font-size="9.5" fill="#FFFFFF">Domain skill &amp;</text><text x="228.75" y="302" text-anchor="middle" font-family="'Manrope','Segoe UI',system-ui,sans-serif" font-size="9.5" fill="#FFFFFF">product design</text><rect x="280.0" y="236" width="90.5" height="122" rx="3" fill="#2FA98A" stroke="#E2E2DD" stroke-width="1"/><text x="325.25" y="290" text-anchor="middle" font-family="'Manrope','Segoe UI',system-ui,sans-serif" font-size="9.5" fill="#FFFFFF">Faster time to</text><text x="325.25" y="302" text-anchor="middle" font-family="'Manrope','Segoe UI',system-ui,sans-serif" font-size="9.5" fill="#FFFFFF">market</text><rect x="376.5" y="236" width="90.5" height="122" rx="3" fill="#2FA98A" stroke="#E2E2DD" stroke-width="1"/><text x="421.75" y="290" text-anchor="middle" font-family="'Manrope','Segoe UI',system-ui,sans-serif" font-size="9.5" fill="#FFFFFF">Reduce product</text><text x="421.75" y="302" text-anchor="middle" font-family="'Manrope','Segoe UI',system-ui,sans-serif" font-size="9.5" fill="#FFFFFF">ownership cost</text><circle cx="46.0" cy="435.0" r="22" fill="#FFFFFF" stroke="#E2E2DD" stroke-width="1.4"/><circle cx="46.0" cy="435.0" r="27" fill="none" stroke="#E2E2DD" stroke-width="1" opacity="0.7"/><text x="46.0" y="439.0" text-anchor="middle" font-family="'Manrope','Segoe UI',system-ui,sans-serif" font-size="13" font-weight="700" fill="#12876A">L1</text><rect x="87.0" y="374" width="90.5" height="122" rx="3" fill="#FFFFFF" stroke="#E2E2DD" stroke-width="1"/><text x="132.25" y="428" text-anchor="middle" font-family="'Manrope','Segoe UI',system-ui,sans-serif" font-size="9.5" fill="#5A5E66">Project</text><text x="132.25" y="440" text-anchor="middle" font-family="'Manrope','Segoe UI',system-ui,sans-serif" font-size="9.5" fill="#5A5E66">execution</text><rect x="183.5" y="374" width="90.5" height="122" rx="3" fill="#FFFFFF" stroke="#E2E2DD" stroke-width="1"/><text x="228.75" y="428" text-anchor="middle" font-family="'Manrope','Segoe UI',system-ui,sans-serif" font-size="9.5" fill="#5A5E66">Coding &amp;</text><text x="228.75" y="440" text-anchor="middle" font-family="'Manrope','Segoe UI',system-ui,sans-serif" font-size="9.5" fill="#5A5E66">testing</text><rect x="280.0" y="374" width="90.5" height="122" rx="3" fill="#FFFFFF" stroke="#E2E2DD" stroke-width="1"/><text x="325.25" y="421" text-anchor="middle" font-family="'Manrope','Segoe UI',system-ui,sans-serif" font-size="9.5" fill="#5A5E66">Scale team</text><text x="325.25" y="434" text-anchor="middle" font-family="'Manrope','Segoe UI',system-ui,sans-serif" font-size="9.5" fill="#5A5E66">sizes on</text><text x="325.25" y="446" text-anchor="middle" font-family="'Manrope','Segoe UI',system-ui,sans-serif" font-size="9.5" fill="#5A5E66">demand</text><rect x="376.5" y="374" width="90.5" height="122" rx="3" fill="#FFFFFF" stroke="#E2E2DD" stroke-width="1"/><text x="421.75" y="428" text-anchor="middle" font-family="'Manrope','Segoe UI',system-ui,sans-serif" font-size="9.5" fill="#5A5E66">Operation cost</text><text x="421.75" y="440" text-anchor="middle" font-family="'Manrope','Segoe UI',system-ui,sans-serif" font-size="9.5" fill="#5A5E66">reduction</text><text x="132.25" y="522" text-anchor="middle" font-family="'JetBrains Mono','SFMono-Regular',ui-monospace,monospace" font-size="9" letter-spacing="0.8" fill="#12876A">OWNERSHIP</text><text x="132.25" y="535" text-anchor="middle" font-family="'JetBrains Mono','SFMono-Regular',ui-monospace,monospace" font-size="9" letter-spacing="0.8" fill="#12876A">LEVEL</text><text x="228.75" y="522" text-anchor="middle" font-family="'JetBrains Mono','SFMono-Regular',ui-monospace,monospace" font-size="9" letter-spacing="0.8" fill="#12876A">SKILL</text><text x="228.75" y="535" text-anchor="middle" font-family="'JetBrains Mono','SFMono-Regular',ui-monospace,monospace" font-size="9" letter-spacing="0.8" fill="#12876A">LEVEL</text><text x="325.25" y="522" text-anchor="middle" font-family="'JetBrains Mono','SFMono-Regular',ui-monospace,monospace" font-size="9" letter-spacing="0.8" fill="#12876A">BUSINESS</text><text x="325.25" y="535" text-anchor="middle" font-family="'JetBrains Mono','SFMono-Regular',ui-monospace,monospace" font-size="9" letter-spacing="0.8" fill="#12876A">VALUE</text><text x="421.75" y="522" text-anchor="middle" font-family="'JetBrains Mono','SFMono-Regular',ui-monospace,monospace" font-size="9" letter-spacing="0.8" fill="#12876A">COST</text><text x="421.75" y="535" text-anchor="middle" font-family="'JetBrains Mono','SFMono-Regular',ui-monospace,monospace" font-size="9" letter-spacing="0.8" fill="#12876A">ADVANTAGES</text><line x1="34" y1="568" x2="394" y2="568" stroke="#E2E2DD" stroke-width="1"/><text x="34" y="584" font-family="'Manrope','Segoe UI',system-ui,sans-serif" font-size="12.5" font-weight="600" fill="#15161A">Where is your team on the journey?</text><text x="34" y="599" font-family="'JetBrains Mono','SFMono-Regular',ui-monospace,monospace" font-size="8.5" letter-spacing="1.4" fill="#9AA0A8">four dimensions · three maturity levels</text></svg>