<svg xmlns="http://www.w3.org/2000/svg" viewBox="0 0 560 380" font-family="Manrope,sans-serif"><defs>
<linearGradient id="bg" x1="0%" y1="0%" x2="0%" y2="100%"><stop offset="0%" stop-color="#161921"/><stop offset="100%" stop-color="#0E0F14"/></linearGradient>
<linearGradient id="bgDark" x1="0%" y1="0%" x2="0%" y2="100%"><stop offset="0%" stop-color="#0a0b0f"/><stop offset="100%" stop-color="#0E0F14"/></linearGradient>
<linearGradient id="node" x1="0%" y1="0%" x2="100%" y2="100%"><stop offset="0%" stop-color="#B4CADC"/><stop offset="100%" stop-color="#7CA0C7"/></linearGradient>
<linearGradient id="nodeDark" x1="0%" y1="0%" x2="100%" y2="100%"><stop offset="0%" stop-color="#7CA0C7"/><stop offset="100%" stop-color="#3a546e"/></linearGradient>
<linearGradient id="accentGrad" x1="0%" y1="0%" x2="100%" y2="0%"><stop offset="0%" stop-color="#7CA0C7"/><stop offset="100%" stop-color="#B4CADC"/></linearGradient>
<linearGradient id="step1" x1="0%" y1="0%" x2="0%" y2="100%"><stop offset="0%" stop-color="#1c2029"/><stop offset="100%" stop-color="#171a22"/></linearGradient>
<linearGradient id="step2" x1="0%" y1="0%" x2="0%" y2="100%"><stop offset="0%" stop-color="#222632"/><stop offset="100%" stop-color="#1c2029"/></linearGradient>
<linearGradient id="step3" x1="0%" y1="0%" x2="0%" y2="100%"><stop offset="0%" stop-color="#B4CADC"/><stop offset="100%" stop-color="#7CA0C7"/></linearGradient>
<radialGradient id="centerGlow" cx="50%" cy="50%" r="50%"><stop offset="0%" stop-color="#7CA0C7" stop-opacity="0.4"/><stop offset="100%" stop-color="#7CA0C7" stop-opacity="0"/></radialGradient>
<radialGradient id="softGlow" cx="50%" cy="50%" r="50%"><stop offset="0%" stop-color="#B4CADC" stop-opacity="0.35"/><stop offset="100%" stop-color="#B4CADC" stop-opacity="0"/></radialGradient>
<filter id="dropShadow" x="-50%" y="-50%" width="200%" height="200%"><feGaussianBlur in="SourceAlpha" stdDeviation="4"/><feOffset dx="0" dy="6"/><feComponentTransfer><feFuncA type="linear" slope="0.5"/></feComponentTransfer><feMerge><feMergeNode/><feMergeNode in="SourceGraphic"/></feMerge></filter>
<filter id="softShadow" x="-50%" y="-50%" width="200%" height="200%"><feGaussianBlur in="SourceAlpha" stdDeviation="2"/><feOffset dx="0" dy="3"/><feComponentTransfer><feFuncA type="linear" slope="0.4"/></feComponentTransfer><feMerge><feMergeNode/><feMergeNode in="SourceGraphic"/></feMerge></filter>
<filter id="glow" x="-100%" y="-100%" width="300%" height="300%"><feGaussianBlur stdDeviation="3"/><feMerge><feMergeNode/><feMergeNode in="SourceGraphic"/></feMerge></filter>
<pattern id="dotgrid" x="0" y="0" width="20" height="20" patternUnits="userSpaceOnUse"><circle cx="2" cy="2" r="0.8" fill="#E7EAEF" opacity="0.06"/></pattern>
</defs>
<rect width="560" height="380" fill="url(#bg)"/>
<rect width="560" height="380" fill="url(#dotgrid)"/>
<text x="30" y="46" font-size="10" letter-spacing="2.5" fill="#B4CADC" font-family="JetBrains Mono,monospace">01 · EMB TEMPLATES</text>
<g transform="translate(30,80)" filter="url(#dropShadow)">
<rect x="0" y="0" width="500" height="200" fill="#1A1E27" stroke="#2A2E37"/>
<rect x="0" y="0" width="500" height="30" fill="#0a0b0f"/>
<text x="14" y="20" font-size="10" fill="#B4CADC" font-family="JetBrains Mono,monospace">CAPABILITY</text>
<text x="220" y="20" font-size="10" fill="#B4CADC" font-family="JetBrains Mono,monospace">L1</text>
<text x="290" y="20" font-size="10" fill="#B4CADC" font-family="JetBrains Mono,monospace">L2</text>
<text x="360" y="20" font-size="10" fill="#B4CADC" font-family="JetBrains Mono,monospace">L3</text>
<text x="440" y="20" font-size="10" fill="#B4CADC" font-family="JetBrains Mono,monospace">SCORE</text>
<g font-family="Manrope,sans-serif" font-size="11" fill="#E7EAEF">
<rect x="0" y="34" width="500" height="32" fill="#1A1E27"/>
<text x="14" y="55">Code Quality &amp; Review</text>
<rect x="216" y="46" width="14" height="14" fill="#2A2E37"/>
<rect x="286" y="46" width="14" height="14" fill="#B4CADC" filter="url(#glow)"/>
<rect x="356" y="46" width="14" height="14" fill="#2A2E37"/>
<text x="440" y="55" fill="#B4CADC" font-weight="500">L2</text>
<rect x="0" y="68" width="500" height="32" fill="#1d2129"/>
<text x="14" y="89">Testing Discipline</text>
<rect x="216" y="80" width="14" height="14" fill="#B4CADC" filter="url(#glow)"/>
<rect x="286" y="80" width="14" height="14" fill="#2A2E37"/>
<rect x="356" y="80" width="14" height="14" fill="#2A2E37"/>
<text x="440" y="89" fill="#B4CADC" font-weight="500">L1</text>
<rect x="0" y="102" width="500" height="32" fill="#1A1E27"/>
<text x="14" y="123">CI/CD Pipeline</text>
<rect x="216" y="114" width="14" height="14" fill="#2A2E37"/>
<rect x="286" y="114" width="14" height="14" fill="#2A2E37"/>
<rect x="356" y="114" width="14" height="14" fill="#B4CADC" filter="url(#glow)"/>
<text x="440" y="123" fill="#B4CADC" font-weight="500">L3</text>
<rect x="0" y="136" width="500" height="32" fill="#1d2129"/>
<text x="14" y="157">Documentation</text>
<rect x="216" y="148" width="14" height="14" fill="#2A2E37"/>
<rect x="286" y="148" width="14" height="14" fill="#B4CADC" filter="url(#glow)"/>
<rect x="356" y="148" width="14" height="14" fill="#2A2E37"/>
<text x="440" y="157" fill="#B4CADC" font-weight="500">L2</text>
<rect x="0" y="170" width="500" height="30" fill="url(#accentGrad)" opacity="0.15"/>
<text x="14" y="190" font-family="JetBrains Mono,monospace" font-size="10" letter-spacing="1.5" fill="#B4CADC">AVG · L2 · NEXT MOVE: TESTING DISCIPLINE</text>
</g>
</g>
<text x="30" y="340" font-size="10" letter-spacing="1.5" fill="#6B707A" font-family="JetBrains Mono,monospace">21 CAPABILITIES · 5 PILLARS · YOURS TO ADAPT</text>
</svg>