<svg xmlns="http://www.w3.org/2000/svg" viewBox="0 0 480 600" font-family="'Manrope','Segoe UI',system-ui,sans-serif">
<defs>
<linearGradient id="pg" x1="0" y1="0" x2="0" y2="1"><stop offset="0" stop-color="#FFFFFF"/><stop offset="1" stop-color="#F4F4F1"/></linearGradient>
<linearGradient id="acc" x1="0" y1="0" x2="1" y2="1"><stop offset="0" stop-color="#14b8a6"/><stop offset="1" stop-color="#0d9488"/></linearGradient>
<radialGradient id="halo" cx="0.5" cy="0.5" r="0.5"><stop offset="0" stop-color="#0d9488" stop-opacity="0.16"/><stop offset="1" stop-color="#0d9488" stop-opacity="0"/></radialGradient>
<filter id="sh" x="-30%" y="-30%" width="160%" height="160%"><feGaussianBlur in="SourceAlpha" stdDeviation="5"/><feOffset dy="7"/><feComponentTransfer><feFuncA type="linear" slope="0.10"/></feComponentTransfer><feMerge><feMergeNode/><feMergeNode in="SourceGraphic"/></feMerge></filter>
</defs>
<rect width="480" height="600" fill="url(#pg)"/>
<g stroke="#E2E2DD" stroke-width="1" opacity="0.45"><line x1="32" y1="0" x2="32" y2="600"/><line x1="64" y1="0" x2="64" y2="600"/><line x1="96" y1="0" x2="96" y2="600"/><line x1="128" y1="0" x2="128" y2="600"/><line x1="160" y1="0" x2="160" y2="600"/><line x1="192" y1="0" x2="192" y2="600"/><line x1="224" y1="0" x2="224" y2="600"/><line x1="256" y1="0" x2="256" y2="600"/><line x1="288" y1="0" x2="288" y2="600"/><line x1="320" y1="0" x2="320" y2="600"/><line x1="352" y1="0" x2="352" y2="600"/><line x1="384" y1="0" x2="384" y2="600"/><line x1="416" y1="0" x2="416" y2="600"/><line x1="448" y1="0" x2="448" y2="600"/><line x1="0" y1="32" x2="480" y2="32"/><line x1="0" y1="64" x2="480" y2="64"/><line x1="0" y1="96" x2="480" y2="96"/><line x1="0" y1="128" x2="480" y2="128"/><line x1="0" y1="160" x2="480" y2="160"/><line x1="0" y1="192" x2="480" y2="192"/><line x1="0" y1="224" x2="480" y2="224"/><line x1="0" y1="256" x2="480" y2="256"/><line x1="0" y1="288" x2="480" y2="288"/><line x1="0" y1="320" x2="480" y2="320"/><line x1="0" y1="352" x2="480" y2="352"/><line x1="0" y1="384" x2="480" y2="384"/><line x1="0" y1="416" x2="480" y2="416"/><line x1="0" y1="448" x2="480" y2="448"/><line x1="0" y1="480" x2="480" y2="480"/><line x1="0" y1="512" x2="480" y2="512"/><line x1="0" y1="544" x2="480" y2="544"/><line x1="0" y1="576" x2="480" y2="576"/></g>
<g stroke="#9AA0A8" stroke-width="1" opacity="0.6" fill="none"><path d="M34 43 V34 H43"/><path d="M437 34 H446 V43"/><path d="M34 557 V566 H43"/><path d="M446 557 V566 H437"/></g><text x="40" y="52" font-family="'JetBrains Mono','SFMono-Regular',ui-monospace,monospace" font-size="9.5" letter-spacing="2.2" fill="#0d9488">THE PIVOT MODEL · ENGINEERING PIVOTS</text><path d="M264.6 144.9 A157.0 157.0 0 0 1 395.1 275.4 L345.7 283.3 A107.0 107.0 0 0 0 256.7 194.3 Z" fill="#0d9488"/><path d="M395.1 275.4 L371.9 304.6 L345.7 283.3 Z" fill="#0d9488"/><circle cx="333.3380951166243" cy="206.66190488337574" r="14.0" fill="none" stroke="#FFFFFF" stroke-width="1.6"/><circle cx="333.3380951166243" cy="206.66190488337574" r="9.2" fill="none" stroke="#FFFFFF" stroke-width="1.6"/><circle cx="333.3380951166243" cy="206.66190488337574" r="4.6" fill="none" stroke="#FFFFFF" stroke-width="1.6"/><circle cx="333.3380951166243" cy="206.66190488337574" r="2.4" fill="#FFFFFF"/><path d="M345.9380951166243 194.06190488337575 l-7.700000000000001 7.700000000000001" stroke="#FFFFFF" stroke-width="2" stroke-linecap="round"/><path d="M345.9380951166243 194.06190488337575 l-2 8 l-6 -6 z" fill="#FFFFFF"/><text x="438" y="148" text-anchor="end" font-family="'Manrope','Segoe UI',system-ui,sans-serif" font-size="12" font-weight="600" fill="#15161A">Business Result</text><text x="438" y="165" text-anchor="end" font-family="'JetBrains Mono','SFMono-Regular',ui-monospace,monospace" font-size="8.5" letter-spacing="0.6" fill="#9AA0A8">Predictable business</text><text x="438" y="179" text-anchor="end" font-family="'JetBrains Mono','SFMono-Regular',ui-monospace,monospace" font-size="8.5" letter-spacing="0.6" fill="#9AA0A8">outcomes</text><path d="M395.1 324.6 A157.0 157.0 0 0 1 264.6 455.1 L256.7 405.7 A107.0 107.0 0 0 0 345.7 316.7 Z" fill="#14b8a6"/><path d="M264.6 455.1 L235.4 431.9 L256.7 405.7 Z" fill="#14b8a6"/><g stroke="#FFFFFF" stroke-width="1.6" fill="none"><line x1="337.7" y1="395.3" x2="341.7" y2="395.3"/><line x1="335.3" y1="401.3" x2="338.1" y2="404.1"/><line x1="329.3" y1="403.7" x2="329.3" y2="407.7"/><line x1="323.4" y1="401.3" x2="320.6" y2="404.1"/><line x1="320.9" y1="395.3" x2="316.9" y2="395.3"/><line x1="323.4" y1="389.4" x2="320.6" y2="386.6"/><line x1="329.3" y1="386.9" x2="329.3" y2="382.9"/><line x1="335.3" y1="389.4" x2="338.1" y2="386.6"/><circle cx="329.3380951166243" cy="395.33809511662423" r="8.4"/><circle cx="329.3380951166243" cy="395.33809511662423" r="2.9"/></g><path d="M334.73809511662427 393.33809511662423 l3.08 3.36 l5.6000000000000005 -7.0" fill="none" stroke="#FFFFFF" stroke-width="2.2" stroke-linecap="round" stroke-linejoin="round"/><text x="438" y="486" text-anchor="end" font-family="'Manrope','Segoe UI',system-ui,sans-serif" font-size="12" font-weight="600" fill="#15161A">Operational Excellence</text><text x="438" y="503" text-anchor="end" font-family="'JetBrains Mono','SFMono-Regular',ui-monospace,monospace" font-size="8.5" letter-spacing="0.6" fill="#9AA0A8">Focus on efficiency</text><text x="438" y="517" text-anchor="end" font-family="'JetBrains Mono','SFMono-Regular',ui-monospace,monospace" font-size="8.5" letter-spacing="0.6" fill="#9AA0A8">&amp; quality</text><path d="M215.4 455.1 A157.0 157.0 0 0 1 84.9 324.6 L134.3 316.7 A107.0 107.0 0 0 0 223.3 405.7 Z" fill="#A6D6C8"/><path d="M84.9 324.6 L108.1 295.4 L134.3 316.7 Z" fill="#A6D6C8"/><g stroke="#FFFFFF" stroke-width="1.6" fill="none"><line x1="153.7" y1="393.3" x2="157.7" y2="393.3"/><line x1="151.6" y1="398.3" x2="154.4" y2="401.1"/><line x1="146.7" y1="400.3" x2="146.7" y2="404.3"/><line x1="141.7" y1="398.3" x2="138.9" y2="401.1"/><line x1="139.7" y1="393.3" x2="135.7" y2="393.3"/><line x1="141.7" y1="388.4" x2="138.9" y2="385.6"/><line x1="146.7" y1="386.3" x2="146.7" y2="382.3"/><line x1="151.6" y1="388.4" x2="154.4" y2="385.6"/><circle cx="146.66190488337574" cy="393.3380951166243" r="7.0"/><circle cx="146.66190488337574" cy="393.3380951166243" r="2.4"/></g><path d="M146.66190488337574 380.4580951166243 A 12.88 12.88 0 0 1 159.54190488337574 393.3380951166243" fill="none" stroke="#FFFFFF" stroke-width="1.8"/><path d="M159.54190488337574 393.3380951166243 l8 -3 l-3 9 z" fill="#FFFFFF"/><path d="M146.66190488337574 406.2180951166243 A 12.88 12.88 0 0 1 133.78190488337574 393.3380951166243" fill="none" stroke="#FFFFFF" stroke-width="1.8"/><path d="M133.78190488337574 393.3380951166243 l-8 3 l3 -9 z" fill="#FFFFFF"/><text x="42" y="486" text-anchor="start" font-family="'Manrope','Segoe UI',system-ui,sans-serif" font-size="12" font-weight="600" fill="#15161A">Pace of Product Development</text><text x="42" y="503" text-anchor="start" font-family="'JetBrains Mono','SFMono-Regular',ui-monospace,monospace" font-size="8.5" letter-spacing="0.6" fill="#9AA0A8">Innovate &amp; adapt</text><text x="42" y="517" text-anchor="start" font-family="'JetBrains Mono','SFMono-Regular',ui-monospace,monospace" font-size="8.5" letter-spacing="0.6" fill="#9AA0A8">products</text><path d="M84.9 275.4 A157.0 157.0 0 0 1 215.4 144.9 L223.3 194.3 A107.0 107.0 0 0 0 134.3 283.3 Z" fill="#14b8a6"/><path d="M215.4 144.9 L244.6 168.1 L223.3 194.3 Z" fill="#14b8a6"/><circle cx="138.0" cy="202.9" r="4.2" fill="none" stroke="#FFFFFF" stroke-width="1.6"/><path d="M132.1 214.6 a 5.9 5.5 0 0 1 11.8 0" fill="none" stroke="#FFFFFF" stroke-width="1.6"/><circle cx="155.3" cy="202.9" r="4.2" fill="none" stroke="#FFFFFF" stroke-width="1.6"/><path d="M149.5 214.6 a 5.9 5.5 0 0 1 11.8 0" fill="none" stroke="#FFFFFF" stroke-width="1.6"/><circle cx="146.7" cy="197.9" r="5.0" fill="none" stroke="#FFFFFF" stroke-width="1.6"/><path d="M139.6 212.0 a 7.1 6.6 0 0 1 14.1 0" fill="none" stroke="#FFFFFF" stroke-width="1.6"/><text x="42" y="148" text-anchor="start" font-family="'Manrope','Segoe UI',system-ui,sans-serif" font-size="12" font-weight="600" fill="#15161A">Collaboration &amp; Alignment</text><text x="42" y="165" text-anchor="start" font-family="'JetBrains Mono','SFMono-Regular',ui-monospace,monospace" font-size="8.5" letter-spacing="0.6" fill="#9AA0A8">Teamwork &amp;</text><text x="42" y="179" text-anchor="start" font-family="'JetBrains Mono','SFMono-Regular',ui-monospace,monospace" font-size="8.5" letter-spacing="0.6" fill="#9AA0A8">communication</text><circle cx="240" cy="300" r="97.0" fill="none" stroke="#E2E2DD" stroke-width="1"/><text x="240" y="296" text-anchor="middle" font-family="'JetBrains Mono','SFMono-Regular',ui-monospace,monospace" font-size="9" letter-spacing="2" fill="#0d9488">PIVOT</text><text x="240" y="310" text-anchor="middle" font-family="'JetBrains Mono','SFMono-Regular',ui-monospace,monospace" font-size="9" letter-spacing="2" fill="#0d9488">MODEL</text><line x1="40" y1="544" x2="340" y2="544" stroke="#E2E2DD" stroke-width="1"/><text x="40" y="560" font-family="'Manrope','Segoe UI',system-ui,sans-serif" font-size="12.5" font-weight="600" fill="#15161A">Four interconnected pivots</text><text x="40" y="575" font-family="'JetBrains Mono','SFMono-Regular',ui-monospace,monospace" font-size="8.5" letter-spacing="1.4" fill="#9AA0A8">the engine of high-performance teams</text></svg>