<svg xmlns="http://www.w3.org/2000/svg" viewBox="0 0 360 244" font-family="'Manrope','Segoe UI',system-ui,sans-serif">
<defs>
<linearGradient id="pg" x1="0" y1="0" x2="0" y2="1"><stop offset="0" stop-color="#181B22"/><stop offset="1" stop-color="#0E0F14"/></linearGradient>
<linearGradient id="acc" x1="0" y1="0" x2="1" y2="1"><stop offset="0" stop-color="#73D9B9"/><stop offset="1" stop-color="#46C79E"/></linearGradient>
<radialGradient id="halo" cx="0.5" cy="0.5" r="0.5"><stop offset="0" stop-color="#46C79E" stop-opacity="0.16"/><stop offset="1" stop-color="#46C79E" stop-opacity="0"/></radialGradient>
<filter id="sh" x="-30%" y="-30%" width="160%" height="160%"><feGaussianBlur in="SourceAlpha" stdDeviation="5"/><feOffset dy="7"/><feComponentTransfer><feFuncA type="linear" slope="0.10"/></feComponentTransfer><feMerge><feMergeNode/><feMergeNode in="SourceGraphic"/></feMerge></filter>
</defs>
<rect width="360" height="244" fill="url(#pg)"/>
<g stroke="#272B34" stroke-width="1" opacity="0.45"><line x1="32" y1="0" x2="32" y2="244"/><line x1="64" y1="0" x2="64" y2="244"/><line x1="96" y1="0" x2="96" y2="244"/><line x1="128" y1="0" x2="128" y2="244"/><line x1="160" y1="0" x2="160" y2="244"/><line x1="192" y1="0" x2="192" y2="244"/><line x1="224" y1="0" x2="224" y2="244"/><line x1="256" y1="0" x2="256" y2="244"/><line x1="288" y1="0" x2="288" y2="244"/><line x1="320" y1="0" x2="320" y2="244"/><line x1="352" y1="0" x2="352" y2="244"/><line x1="0" y1="32" x2="360" y2="32"/><line x1="0" y1="64" x2="360" y2="64"/><line x1="0" y1="96" x2="360" y2="96"/><line x1="0" y1="128" x2="360" y2="128"/><line x1="0" y1="160" x2="360" y2="160"/><line x1="0" y1="192" x2="360" y2="192"/><line x1="0" y1="224" x2="360" y2="224"/></g>
<g stroke="#6A6F79" stroke-width="1" opacity="0.6" fill="none"><path d="M26 35 V26 H35"/><path d="M325 26 H334 V35"/><path d="M26 209 V218 H35"/><path d="M334 209 V218 H325"/></g><text x="28" y="36" font-family="'JetBrains Mono','SFMono-Regular',ui-monospace,monospace" font-size="9.5" letter-spacing="2.2" fill="#46C79E">01 · EMB SCHEMA</text><circle cx="180" cy="118" r="30" fill="url(#halo)"/><rect x="154" y="92" width="52" height="52" rx="6" fill="#1A1E27" stroke="#46C79E" stroke-width="1.6"/><line x1="166" y1="110" x2="190" y2="110" stroke="#73D9B9" stroke-width="2"/><line x1="166" y1="119" x2="190" y2="119" stroke="#73D9B9" stroke-width="2"/><line x1="166" y1="128" x2="190" y2="128" stroke="#73D9B9" stroke-width="2"/><text x="180" y="162" text-anchor="middle" font-family="'JetBrains Mono','SFMono-Regular',ui-monospace,monospace" font-size="8" letter-spacing="1.2" fill="#46C79E">EMB BLUEPRINT</text><rect x="24" y="92" width="44" height="52" rx="4" fill="#1A1E27" stroke="#272B34" stroke-width="1.2"/><path d="M72 118 L146 118" stroke="#46C79E" stroke-width="2"/><path d="M146 118 l-9 -4 l0 8 z" fill="#46C79E"/><text x="46" y="78" text-anchor="middle" font-family="'JetBrains Mono','SFMono-Regular',ui-monospace,monospace" font-size="7.5" letter-spacing="0.4" fill="#6A6F79">Factors influencing</text><text x="46" y="89" text-anchor="middle" font-family="'JetBrains Mono','SFMono-Regular',ui-monospace,monospace" font-size="7.5" letter-spacing="0.4" fill="#6A6F79">maturity</text><rect x="292" y="92" width="44" height="52" rx="4" fill="#1A1E27" stroke="#272B34" stroke-width="1.2"/><path d="M288 118 L214 118" stroke="#46C79E" stroke-width="2"/><path d="M214 118 l9 -4 l0 8 z" fill="#46C79E"/><text x="306" y="78" text-anchor="middle" font-family="'JetBrains Mono','SFMono-Regular',ui-monospace,monospace" font-size="7.5" letter-spacing="0.4" fill="#6A6F79">Business drivers</text><path d="M180 208 L180 152" stroke="#46C79E" stroke-width="2"/><path d="M180 152 l-4 9 l8 0 z" fill="#46C79E"/><text x="180" y="216" text-anchor="middle" font-family="'JetBrains Mono','SFMono-Regular',ui-monospace,monospace" font-size="7.5" letter-spacing="0.4" fill="#6A6F79">Performance</text><text x="180" y="227" text-anchor="middle" font-family="'JetBrains Mono','SFMono-Regular',ui-monospace,monospace" font-size="7.5" letter-spacing="0.4" fill="#6A6F79">measures</text></svg>