<svg xmlns="http://www.w3.org/2000/svg" viewBox="0 0 560 380" font-family="Manrope,sans-serif"><defs>
<linearGradient id="bg" x1="0%" y1="0%" x2="0%" y2="100%"><stop offset="0%" stop-color="#161921"/><stop offset="100%" stop-color="#0E0F14"/></linearGradient>
<linearGradient id="bgDark" x1="0%" y1="0%" x2="0%" y2="100%"><stop offset="0%" stop-color="#0a0b0f"/><stop offset="100%" stop-color="#0E0F14"/></linearGradient>
<linearGradient id="node" x1="0%" y1="0%" x2="100%" y2="100%"><stop offset="0%" stop-color="#B4CADC"/><stop offset="100%" stop-color="#7CA0C7"/></linearGradient>
<linearGradient id="nodeDark" x1="0%" y1="0%" x2="100%" y2="100%"><stop offset="0%" stop-color="#7CA0C7"/><stop offset="100%" stop-color="#3a546e"/></linearGradient>
<linearGradient id="accentGrad" x1="0%" y1="0%" x2="100%" y2="0%"><stop offset="0%" stop-color="#7CA0C7"/><stop offset="100%" stop-color="#B4CADC"/></linearGradient>
<linearGradient id="step1" x1="0%" y1="0%" x2="0%" y2="100%"><stop offset="0%" stop-color="#1c2029"/><stop offset="100%" stop-color="#171a22"/></linearGradient>
<linearGradient id="step2" x1="0%" y1="0%" x2="0%" y2="100%"><stop offset="0%" stop-color="#222632"/><stop offset="100%" stop-color="#1c2029"/></linearGradient>
<linearGradient id="step3" x1="0%" y1="0%" x2="0%" y2="100%"><stop offset="0%" stop-color="#B4CADC"/><stop offset="100%" stop-color="#7CA0C7"/></linearGradient>
<radialGradient id="centerGlow" cx="50%" cy="50%" r="50%"><stop offset="0%" stop-color="#7CA0C7" stop-opacity="0.4"/><stop offset="100%" stop-color="#7CA0C7" stop-opacity="0"/></radialGradient>
<radialGradient id="softGlow" cx="50%" cy="50%" r="50%"><stop offset="0%" stop-color="#B4CADC" stop-opacity="0.35"/><stop offset="100%" stop-color="#B4CADC" stop-opacity="0"/></radialGradient>
<filter id="dropShadow" x="-50%" y="-50%" width="200%" height="200%"><feGaussianBlur in="SourceAlpha" stdDeviation="4"/><feOffset dx="0" dy="6"/><feComponentTransfer><feFuncA type="linear" slope="0.5"/></feComponentTransfer><feMerge><feMergeNode/><feMergeNode in="SourceGraphic"/></feMerge></filter>
<filter id="softShadow" x="-50%" y="-50%" width="200%" height="200%"><feGaussianBlur in="SourceAlpha" stdDeviation="2"/><feOffset dx="0" dy="3"/><feComponentTransfer><feFuncA type="linear" slope="0.4"/></feComponentTransfer><feMerge><feMergeNode/><feMergeNode in="SourceGraphic"/></feMerge></filter>
<filter id="glow" x="-100%" y="-100%" width="300%" height="300%"><feGaussianBlur stdDeviation="3"/><feMerge><feMergeNode/><feMergeNode in="SourceGraphic"/></feMerge></filter>
<pattern id="dotgrid" x="0" y="0" width="20" height="20" patternUnits="userSpaceOnUse"><circle cx="2" cy="2" r="0.8" fill="#E7EAEF" opacity="0.06"/></pattern>
</defs>
<rect width="560" height="380" fill="url(#bgDark)"/>
<ellipse cx="400" cy="200" rx="220" ry="160" fill="url(#softGlow)"/>
<text x="30" y="46" font-size="10" letter-spacing="2.5" fill="#B4CADC" font-family="JetBrains Mono,monospace">05 · AI IMPACT GUIDES</text>
<g transform="translate(80,210)">
<g stroke="#B4CADC" stroke-width="0.6" opacity="0.4"><line x1="0" y1="-60" x2="130" y2="-50"/><line x1="0" y1="-60" x2="130" y2="-10"/><line x1="0" y1="-20" x2="130" y2="-50"/><line x1="0" y1="-20" x2="130" y2="-10"/><line x1="0" y1="-20" x2="130" y2="30"/><line x1="0" y1="20" x2="130" y2="-10"/><line x1="0" y1="20" x2="130" y2="30"/><line x1="0" y1="20" x2="130" y2="70"/><line x1="0" y1="60" x2="130" y2="30"/><line x1="0" y1="60" x2="130" y2="70"/><line x1="130" y1="-50" x2="260" y2="-30"/><line x1="130" y1="-10" x2="260" y2="-30"/><line x1="130" y1="-10" x2="260" y2="10"/><line x1="130" y1="30" x2="260" y2="10"/><line x1="130" y1="30" x2="260" y2="50"/><line x1="130" y1="70" x2="260" y2="50"/><line x1="260" y1="-30" x2="380" y2="0"/><line x1="260" y1="10" x2="380" y2="0"/><line x1="260" y1="50" x2="380" y2="0"/></g>
<g fill="#B4CADC" filter="url(#glow)"><circle cx="0" cy="-60" r="9"/><circle cx="0" cy="-20" r="9"/><circle cx="0" cy="20" r="9"/><circle cx="0" cy="60" r="9"/></g>
<g fill="#7CA0C7" filter="url(#glow)"><circle cx="130" cy="-50" r="9"/><circle cx="130" cy="-10" r="9"/><circle cx="130" cy="30" r="9"/><circle cx="130" cy="70" r="9"/></g>
<g fill="#E7EAEF" filter="url(#glow)"><circle cx="260" cy="-30" r="9"/><circle cx="260" cy="10" r="9"/><circle cx="260" cy="50" r="9"/></g>
<g filter="url(#dropShadow)"><circle cx="380" cy="0" r="18" fill="#B4CADC"/></g>
<circle cx="380" cy="0" r="28" fill="none" stroke="#B4CADC" stroke-width="0.6" opacity="0.5"/>
<circle cx="380" cy="0" r="38" fill="none" stroke="#B4CADC" stroke-width="0.4" opacity="0.3"/>
<g font-size="9" letter-spacing="1.5" font-family="JetBrains Mono,monospace" fill="#B4CADC"><text x="0" y="105">PHASE 1</text><text x="130" y="105">PHASE 2</text><text x="260" y="105">PHASE 3</text><text x="370" y="-30" fill="#0E0F14">L3</text></g>
</g>
<text x="30" y="340" font-size="10" letter-spacing="1.5" fill="#B4CADC" font-family="JetBrains Mono,monospace">NAVIGATING THE THREE PHASES OF AI</text>
</svg>