<svg xmlns="http://www.w3.org/2000/svg" viewBox="0 0 640 520" font-family="Manrope,sans-serif"><defs>
<linearGradient id="bg" x1="0%" y1="0%" x2="0%" y2="100%"><stop offset="0%" stop-color="#161921"/><stop offset="100%" stop-color="#0E0F14"/></linearGradient>
<linearGradient id="bgDark" x1="0%" y1="0%" x2="0%" y2="100%"><stop offset="0%" stop-color="#0a0b0f"/><stop offset="100%" stop-color="#0E0F14"/></linearGradient>
<linearGradient id="node" x1="0%" y1="0%" x2="100%" y2="100%"><stop offset="0%" stop-color="#B4CADC"/><stop offset="100%" stop-color="#7CA0C7"/></linearGradient>
<linearGradient id="nodeDark" x1="0%" y1="0%" x2="100%" y2="100%"><stop offset="0%" stop-color="#7CA0C7"/><stop offset="100%" stop-color="#3a546e"/></linearGradient>
<linearGradient id="accentGrad" x1="0%" y1="0%" x2="100%" y2="0%"><stop offset="0%" stop-color="#7CA0C7"/><stop offset="100%" stop-color="#B4CADC"/></linearGradient>
<linearGradient id="step1" x1="0%" y1="0%" x2="0%" y2="100%"><stop offset="0%" stop-color="#1c2029"/><stop offset="100%" stop-color="#171a22"/></linearGradient>
<linearGradient id="step2" x1="0%" y1="0%" x2="0%" y2="100%"><stop offset="0%" stop-color="#222632"/><stop offset="100%" stop-color="#1c2029"/></linearGradient>
<linearGradient id="step3" x1="0%" y1="0%" x2="0%" y2="100%"><stop offset="0%" stop-color="#B4CADC"/><stop offset="100%" stop-color="#7CA0C7"/></linearGradient>
<radialGradient id="centerGlow" cx="50%" cy="50%" r="50%"><stop offset="0%" stop-color="#7CA0C7" stop-opacity="0.4"/><stop offset="100%" stop-color="#7CA0C7" stop-opacity="0"/></radialGradient>
<radialGradient id="softGlow" cx="50%" cy="50%" r="50%"><stop offset="0%" stop-color="#B4CADC" stop-opacity="0.35"/><stop offset="100%" stop-color="#B4CADC" stop-opacity="0"/></radialGradient>
<filter id="dropShadow" x="-50%" y="-50%" width="200%" height="200%"><feGaussianBlur in="SourceAlpha" stdDeviation="4"/><feOffset dx="0" dy="6"/><feComponentTransfer><feFuncA type="linear" slope="0.5"/></feComponentTransfer><feMerge><feMergeNode/><feMergeNode in="SourceGraphic"/></feMerge></filter>
<filter id="softShadow" x="-50%" y="-50%" width="200%" height="200%"><feGaussianBlur in="SourceAlpha" stdDeviation="2"/><feOffset dx="0" dy="3"/><feComponentTransfer><feFuncA type="linear" slope="0.4"/></feComponentTransfer><feMerge><feMergeNode/><feMergeNode in="SourceGraphic"/></feMerge></filter>
<filter id="glow" x="-100%" y="-100%" width="300%" height="300%"><feGaussianBlur stdDeviation="3"/><feMerge><feMergeNode/><feMergeNode in="SourceGraphic"/></feMerge></filter>
<pattern id="dotgrid" x="0" y="0" width="20" height="20" patternUnits="userSpaceOnUse"><circle cx="2" cy="2" r="0.8" fill="#E7EAEF" opacity="0.06"/></pattern>
</defs>
<rect width="640" height="520" fill="url(#bg)"/>
<rect width="640" height="520" fill="url(#dotgrid)"/>
<text x="40" y="60" font-size="10" letter-spacing="2.5" fill="#B4CADC" font-family="JetBrains Mono,monospace">— DISTRIBUTED</text>
<g transform="translate(320,240)">
<ellipse cx="0" cy="0" rx="240" ry="100" fill="none" stroke="#2A2E37" stroke-width="0.8"/>
<ellipse cx="0" cy="0" rx="240" ry="40" fill="none" stroke="#2A2E37" stroke-width="0.6" stroke-dasharray="2 3"/>
<ellipse cx="0" cy="0" rx="180" ry="75" fill="none" stroke="#2A2E37" stroke-width="0.4"/>
<g stroke="#7CA0C7" stroke-width="0.8" stroke-dasharray="3 4" opacity="0.55"><path d="M 0 0 Q -90 -80 -200 -50" fill="none"/><path d="M 0 0 Q 90 -80 200 -50" fill="none"/><path d="M 0 0 Q -90 80 -200 50" fill="none"/><path d="M 0 0 Q 90 80 200 50" fill="none"/></g>
<g filter="url(#dropShadow)"><rect x="-46" y="-26" width="92" height="52" rx="4" fill="#B4CADC"/></g>
<text x="0" y="-4" text-anchor="middle" font-size="11" letter-spacing="2" fill="#0E0F14" font-family="JetBrains Mono,monospace">HQ</text>
<text x="0" y="12" text-anchor="middle" font-size="7" letter-spacing="1.5" fill="#0E0F14" opacity="0.7" font-family="JetBrains Mono,monospace">SAN FRANCISCO</text>
<g filter="url(#softShadow)"><rect x="-220" y="-68" width="74" height="38" rx="3" fill="#1A1E27" stroke="#7CA0C7" stroke-width="1.4"/></g>
<text x="-183" y="-50" text-anchor="middle" font-size="9" letter-spacing="1.5" fill="#B4CADC" font-family="JetBrains Mono,monospace">INDIA</text>
<text x="-183" y="-38" text-anchor="middle" font-size="7" letter-spacing="1" fill="#6B707A" font-family="JetBrains Mono,monospace">BANGALORE</text>
<g filter="url(#softShadow)"><rect x="146" y="-68" width="86" height="38" rx="3" fill="#1A1E27" stroke="#7CA0C7" stroke-width="1.4"/></g>
<text x="189" y="-50" text-anchor="middle" font-size="9" letter-spacing="1.5" fill="#B4CADC" font-family="JetBrains Mono,monospace">E. EUROPE</text>
<text x="189" y="-38" text-anchor="middle" font-size="7" letter-spacing="1" fill="#6B707A" font-family="JetBrains Mono,monospace">WARSAW</text>
<g filter="url(#softShadow)"><rect x="-220" y="32" width="74" height="38" rx="3" fill="#1A1E27" stroke="#7CA0C7" stroke-width="1.4"/></g>
<text x="-183" y="50" text-anchor="middle" font-size="9" letter-spacing="1.5" fill="#B4CADC" font-family="JetBrains Mono,monospace">LATAM</text>
<text x="-183" y="62" text-anchor="middle" font-size="7" letter-spacing="1" fill="#6B707A" font-family="JetBrains Mono,monospace">MEDELLIN</text>
<g filter="url(#softShadow)"><rect x="146" y="32" width="86" height="38" rx="3" fill="#1A1E27" stroke="#7CA0C7" stroke-width="1.4"/></g>
<text x="189" y="50" text-anchor="middle" font-size="9" letter-spacing="1.5" fill="#B4CADC" font-family="JetBrains Mono,monospace">VIETNAM</text>
<text x="189" y="62" text-anchor="middle" font-size="7" letter-spacing="1" fill="#6B707A" font-family="JetBrains Mono,monospace">HANOI</text>
</g>
<text x="40" y="430" font-size="13" font-weight="500" fill="#E7EAEF">Product Companies</text>
<text x="40" y="456" font-size="11" font-weight="300" fill="#A8AEB8">Distributed engineering across borders</text>
</svg>