<svg xmlns="http://www.w3.org/2000/svg" viewBox="0 0 360 240" font-family="'Manrope','Segoe UI',system-ui,sans-serif">
<defs>
<linearGradient id="pg" x1="0" y1="0" x2="0" y2="1"><stop offset="0" stop-color="#FFFFFF"/><stop offset="1" stop-color="#F4F4F1"/></linearGradient>
<linearGradient id="acc" x1="0" y1="0" x2="1" y2="1"><stop offset="0" stop-color="#2FA98A"/><stop offset="1" stop-color="#12876A"/></linearGradient>
<radialGradient id="halo" cx="0.5" cy="0.5" r="0.5"><stop offset="0" stop-color="#12876A" stop-opacity="0.16"/><stop offset="1" stop-color="#12876A" stop-opacity="0"/></radialGradient>
<filter id="sh" x="-30%" y="-30%" width="160%" height="160%"><feGaussianBlur in="SourceAlpha" stdDeviation="5"/><feOffset dy="7"/><feComponentTransfer><feFuncA type="linear" slope="0.10"/></feComponentTransfer><feMerge><feMergeNode/><feMergeNode in="SourceGraphic"/></feMerge></filter>
</defs>
<rect width="360" height="240" fill="url(#pg)"/>
<g stroke="#E2E2DD" stroke-width="1" opacity="0.45"><line x1="32" y1="0" x2="32" y2="240"/><line x1="64" y1="0" x2="64" y2="240"/><line x1="96" y1="0" x2="96" y2="240"/><line x1="128" y1="0" x2="128" y2="240"/><line x1="160" y1="0" x2="160" y2="240"/><line x1="192" y1="0" x2="192" y2="240"/><line x1="224" y1="0" x2="224" y2="240"/><line x1="256" y1="0" x2="256" y2="240"/><line x1="288" y1="0" x2="288" y2="240"/><line x1="320" y1="0" x2="320" y2="240"/><line x1="352" y1="0" x2="352" y2="240"/><line x1="0" y1="32" x2="360" y2="32"/><line x1="0" y1="64" x2="360" y2="64"/><line x1="0" y1="96" x2="360" y2="96"/><line x1="0" y1="128" x2="360" y2="128"/><line x1="0" y1="160" x2="360" y2="160"/><line x1="0" y1="192" x2="360" y2="192"/><line x1="0" y1="224" x2="360" y2="224"/></g>
<g stroke="#9AA0A8" stroke-width="1" opacity="0.6" fill="none"><path d="M28 37 V28 H37"/><path d="M323 28 H332 V37"/><path d="M28 203 V212 H37"/><path d="M332 203 V212 H323"/></g><text x="28" y="40" font-family="'JetBrains Mono','SFMono-Regular',ui-monospace,monospace" font-size="9.5" letter-spacing="2.2" fill="#12876A">03 · COLLABORATION</text><circle cx="180" cy="118" r="52" fill="url(#halo)"/><circle cx="180" cy="118" r="44" fill="none" stroke="#E2E2DD" stroke-width="1.2"/><circle cx="161.4" cy="109.9" r="9.0" fill="none" stroke="#12876A" stroke-width="1.6"/><path d="M148.8 135.1 a 12.6 11.7 0 0 1 25.2 0" fill="none" stroke="#12876A" stroke-width="1.6"/><circle cx="198.6" cy="109.9" r="9.0" fill="none" stroke="#12876A" stroke-width="1.6"/><path d="M186.0 135.1 a 12.6 11.7 0 0 1 25.2 0" fill="none" stroke="#12876A" stroke-width="1.6"/><circle cx="180.0" cy="99.2" r="10.8" fill="none" stroke="#12876A" stroke-width="1.6"/><path d="M164.9 129.4 a 15.1 14.0 0 0 1 30.2 0" fill="none" stroke="#12876A" stroke-width="1.6"/><line x1="28" y1="202" x2="228" y2="202" stroke="#E2E2DD" stroke-width="1"/><text x="28" y="218" font-family="'Manrope','Segoe UI',system-ui,sans-serif" font-size="12.5" font-weight="600" fill="#15161A">Collaboration &amp; Alignment</text><text x="28" y="233" font-family="'JetBrains Mono','SFMono-Regular',ui-monospace,monospace" font-size="8.5" letter-spacing="1.4" fill="#9AA0A8">teamwork &amp; communication</text></svg>