<svg xmlns="http://www.w3.org/2000/svg" viewBox="0 0 560 380" font-family="Manrope,sans-serif"><defs>
<linearGradient id="bg" x1="0%" y1="0%" x2="0%" y2="100%"><stop offset="0%" stop-color="#FFFFFF"/><stop offset="100%" stop-color="#F0F0EE"/></linearGradient>
<linearGradient id="bgDark" x1="0%" y1="0%" x2="0%" y2="100%"><stop offset="0%" stop-color="#1d1f24"/><stop offset="100%" stop-color="#15161A"/></linearGradient>
<linearGradient id="node" x1="0%" y1="0%" x2="100%" y2="100%"><stop offset="0%" stop-color="#6889A8"/><stop offset="100%" stop-color="#4E6E8E"/></linearGradient>
<linearGradient id="nodeDark" x1="0%" y1="0%" x2="100%" y2="100%"><stop offset="0%" stop-color="#2c2f36"/><stop offset="100%" stop-color="#15161A"/></linearGradient>
<linearGradient id="accentGrad" x1="0%" y1="0%" x2="100%" y2="0%"><stop offset="0%" stop-color="#4E6E8E"/><stop offset="100%" stop-color="#9BB5CC"/></linearGradient>
<linearGradient id="step1" x1="0%" y1="0%" x2="0%" y2="100%"><stop offset="0%" stop-color="#FFFFFF"/><stop offset="100%" stop-color="#F0F0EE"/></linearGradient>
<linearGradient id="step2" x1="0%" y1="0%" x2="0%" y2="100%"><stop offset="0%" stop-color="#F0F0EE"/><stop offset="100%" stop-color="#E2E2DD"/></linearGradient>
<linearGradient id="step3" x1="0%" y1="0%" x2="0%" y2="100%"><stop offset="0%" stop-color="#2D3036"/><stop offset="100%" stop-color="#15161A"/></linearGradient>
<radialGradient id="centerGlow" cx="50%" cy="50%" r="50%"><stop offset="0%" stop-color="#4E6E8E" stop-opacity="0.22"/><stop offset="100%" stop-color="#4E6E8E" stop-opacity="0"/></radialGradient>
<radialGradient id="softGlow" cx="50%" cy="50%" r="50%"><stop offset="0%" stop-color="#9BB5CC" stop-opacity="0.35"/><stop offset="100%" stop-color="#9BB5CC" stop-opacity="0"/></radialGradient>
<filter id="dropShadow" x="-50%" y="-50%" width="200%" height="200%"><feGaussianBlur in="SourceAlpha" stdDeviation="4"/><feOffset dx="0" dy="6"/><feComponentTransfer><feFuncA type="linear" slope="0.18"/></feComponentTransfer><feMerge><feMergeNode/><feMergeNode in="SourceGraphic"/></feMerge></filter>
<filter id="softShadow" x="-50%" y="-50%" width="200%" height="200%"><feGaussianBlur in="SourceAlpha" stdDeviation="2"/><feOffset dx="0" dy="3"/><feComponentTransfer><feFuncA type="linear" slope="0.15"/></feComponentTransfer><feMerge><feMergeNode/><feMergeNode in="SourceGraphic"/></feMerge></filter>
<filter id="glow" x="-100%" y="-100%" width="300%" height="300%"><feGaussianBlur stdDeviation="3"/><feMerge><feMergeNode/><feMergeNode in="SourceGraphic"/></feMerge></filter>
<pattern id="dotgrid" x="0" y="0" width="20" height="20" patternUnits="userSpaceOnUse"><circle cx="2" cy="2" r="1" fill="#E6E6E2"/></pattern>
</defs>
<rect width="560" height="380" fill="url(#bg)"/>
<text x="30" y="46" font-size="10" letter-spacing="2.5" fill="#4E6E8E" font-family="JetBrains Mono,monospace">06 · WHITEPAPERS</text>
<g transform="translate(280,200)">
<g transform="rotate(-6) translate(0,4)" filter="url(#dropShadow)">
<rect x="-86" y="-104" width="172" height="208" fill="#FFFFFF" stroke="#E6E6E2"/>
<rect x="-86" y="-104" width="172" height="22" fill="#F0F0EE"/>
<line x1="-66" y1="-72" x2="66" y2="-72" stroke="#E6E6E2"/>
<line x1="-66" y1="-54" x2="66" y2="-54" stroke="#E6E6E2"/>
<line x1="-66" y1="-36" x2="46" y2="-36" stroke="#E6E6E2"/>
</g>
<g transform="rotate(3) translate(0,2)" filter="url(#dropShadow)">
<rect x="-86" y="-104" width="172" height="208" fill="#FFFFFF" stroke="#9BB5CC"/>
<rect x="-86" y="-104" width="172" height="22" fill="#9BB5CC" opacity="0.18"/>
<line x1="-66" y1="-72" x2="66" y2="-72" stroke="#9BB5CC"/>
<line x1="-66" y1="-54" x2="66" y2="-54" stroke="#9BB5CC"/>
<line x1="-66" y1="-36" x2="50" y2="-36" stroke="#9BB5CC"/>
</g>
<g filter="url(#dropShadow)">
<rect x="-86" y="-104" width="172" height="208" fill="#FFFFFF" stroke="#15161A" stroke-width="1.4"/>
<rect x="-86" y="-104" width="172" height="26" fill="#15161A"/>
<text x="-72" y="-86" font-size="10" letter-spacing="1.5" fill="#9BB5CC" font-family="JetBrains Mono,monospace">EMB FRAMEWORK</text>
<text x="-68" y="-58" font-family="Manrope,sans-serif" font-size="13" font-weight="500" fill="#15161A">The benchmark</text>
<text x="-68" y="-42" font-family="Manrope,sans-serif" font-size="13" font-weight="500" fill="#15161A">that scales.</text>
<line x1="-68" y1="-26" x2="48" y2="-26" stroke="#4E6E8E" stroke-width="1.5"/>
<line x1="-68" y1="-10" x2="68" y2="-10" stroke="#E6E6E2"/>
<line x1="-68" y1="6" x2="58" y2="6" stroke="#E6E6E2"/>
<line x1="-68" y1="22" x2="68" y2="22" stroke="#E6E6E2"/>
<line x1="-68" y1="38" x2="40" y2="38" stroke="#E6E6E2"/>
<line x1="-68" y1="54" x2="68" y2="54" stroke="#E6E6E2"/>
<line x1="-68" y1="70" x2="50" y2="70" stroke="#E6E6E2"/>
<text x="-68" y="92" font-size="9" letter-spacing="1.5" fill="#8B8F96" font-family="JetBrains Mono,monospace">24 PAGES · MEMBERS</text>
</g>
</g>
<text x="30" y="340" font-size="10" letter-spacing="1.5" fill="#8B8F96" font-family="JetBrains Mono,monospace">IN-DEPTH FRAMEWORKS &amp; RESEARCH</text>
</svg>