<svg xmlns="http://www.w3.org/2000/svg" viewBox="0 0 360 244" font-family="'Manrope','Segoe UI',system-ui,sans-serif">
<defs>
<linearGradient id="pg" x1="0" y1="0" x2="0" y2="1"><stop offset="0" stop-color="#181B22"/><stop offset="1" stop-color="#0E0F14"/></linearGradient>
<linearGradient id="acc" x1="0" y1="0" x2="1" y2="1"><stop offset="0" stop-color="#73D9B9"/><stop offset="1" stop-color="#2dd4bf"/></linearGradient>
<radialGradient id="halo" cx="0.5" cy="0.5" r="0.5"><stop offset="0" stop-color="#2dd4bf" stop-opacity="0.16"/><stop offset="1" stop-color="#2dd4bf" stop-opacity="0"/></radialGradient>
<filter id="sh" x="-30%" y="-30%" width="160%" height="160%"><feGaussianBlur in="SourceAlpha" stdDeviation="5"/><feOffset dy="7"/><feComponentTransfer><feFuncA type="linear" slope="0.10"/></feComponentTransfer><feMerge><feMergeNode/><feMergeNode in="SourceGraphic"/></feMerge></filter>
</defs>
<rect width="360" height="244" fill="url(#pg)"/>
<g stroke="#272B34" stroke-width="1" opacity="0.45"><line x1="32" y1="0" x2="32" y2="244"/><line x1="64" y1="0" x2="64" y2="244"/><line x1="96" y1="0" x2="96" y2="244"/><line x1="128" y1="0" x2="128" y2="244"/><line x1="160" y1="0" x2="160" y2="244"/><line x1="192" y1="0" x2="192" y2="244"/><line x1="224" y1="0" x2="224" y2="244"/><line x1="256" y1="0" x2="256" y2="244"/><line x1="288" y1="0" x2="288" y2="244"/><line x1="320" y1="0" x2="320" y2="244"/><line x1="352" y1="0" x2="352" y2="244"/><line x1="0" y1="32" x2="360" y2="32"/><line x1="0" y1="64" x2="360" y2="64"/><line x1="0" y1="96" x2="360" y2="96"/><line x1="0" y1="128" x2="360" y2="128"/><line x1="0" y1="160" x2="360" y2="160"/><line x1="0" y1="192" x2="360" y2="192"/><line x1="0" y1="224" x2="360" y2="224"/></g>
<g stroke="#6A6F79" stroke-width="1" opacity="0.6" fill="none"><path d="M26 35 V26 H35"/><path d="M325 26 H334 V35"/><path d="M26 209 V218 H35"/><path d="M334 209 V218 H325"/></g><text x="28" y="38" font-family="'JetBrains Mono','SFMono-Regular',ui-monospace,monospace" font-size="9.5" letter-spacing="2.2" fill="#2dd4bf">06 · WHITEPAPERS</text><rect x="108" y="72" width="120" height="150" rx="3" fill="#1A1E27" stroke="#272B34" stroke-width="1.2" /><rect x="99" y="65" width="120" height="150" rx="3" fill="#1A1E27" stroke="#272B34" stroke-width="1.2" /><rect x="90" y="58" width="120" height="150" rx="3" fill="#1A1E27" stroke="#272B34" stroke-width="1.2" filter="url(#sh)"/><rect x="106" y="78" width="50" height="10" rx="2" fill="url(#acc)"/><rect x="106" y="102" width="88" height="5" rx="2.5" fill="#272B34"/><rect x="106" y="118" width="88" height="5" rx="2.5" fill="#272B34"/><rect x="106" y="134" width="88" height="5" rx="2.5" fill="#272B34"/><rect x="106" y="150" width="88" height="5" rx="2.5" fill="#272B34"/><rect x="106" y="166" width="52" height="5" rx="2.5" fill="#272B34"/><text x="248" y="120" font-family="'Manrope','Segoe UI',system-ui,sans-serif" font-size="13" font-weight="600" fill="#E7EAEF">Research</text><text x="248" y="138" font-family="'JetBrains Mono','SFMono-Regular',ui-monospace,monospace" font-size="8.5" letter-spacing="1.2" fill="#6A6F79">FREE + MEMBER</text></svg>