<svg xmlns="http://www.w3.org/2000/svg" viewBox="0 0 760 1060" font-family="Manrope,sans-serif"><defs>
<linearGradient id="bg" x1="0%" y1="0%" x2="0%" y2="100%"><stop offset="0%" stop-color="#FFFFFF"/><stop offset="100%" stop-color="#F0F0EE"/></linearGradient>
<linearGradient id="bgDark" x1="0%" y1="0%" x2="0%" y2="100%"><stop offset="0%" stop-color="#1d1f24"/><stop offset="100%" stop-color="#15161A"/></linearGradient>
<linearGradient id="node" x1="0%" y1="0%" x2="100%" y2="100%"><stop offset="0%" stop-color="#6889A8"/><stop offset="100%" stop-color="#4E6E8E"/></linearGradient>
<linearGradient id="nodeDark" x1="0%" y1="0%" x2="100%" y2="100%"><stop offset="0%" stop-color="#2c2f36"/><stop offset="100%" stop-color="#15161A"/></linearGradient>
<linearGradient id="accentGrad" x1="0%" y1="0%" x2="100%" y2="0%"><stop offset="0%" stop-color="#4E6E8E"/><stop offset="100%" stop-color="#9BB5CC"/></linearGradient>
<linearGradient id="step1" x1="0%" y1="0%" x2="0%" y2="100%"><stop offset="0%" stop-color="#FFFFFF"/><stop offset="100%" stop-color="#F0F0EE"/></linearGradient>
<linearGradient id="step2" x1="0%" y1="0%" x2="0%" y2="100%"><stop offset="0%" stop-color="#F0F0EE"/><stop offset="100%" stop-color="#E2E2DD"/></linearGradient>
<linearGradient id="step3" x1="0%" y1="0%" x2="0%" y2="100%"><stop offset="0%" stop-color="#2D3036"/><stop offset="100%" stop-color="#15161A"/></linearGradient>
<radialGradient id="centerGlow" cx="50%" cy="50%" r="50%"><stop offset="0%" stop-color="#4E6E8E" stop-opacity="0.22"/><stop offset="100%" stop-color="#4E6E8E" stop-opacity="0"/></radialGradient>
<radialGradient id="softGlow" cx="50%" cy="50%" r="50%"><stop offset="0%" stop-color="#9BB5CC" stop-opacity="0.35"/><stop offset="100%" stop-color="#9BB5CC" stop-opacity="0"/></radialGradient>
<filter id="dropShadow" x="-50%" y="-50%" width="200%" height="200%"><feGaussianBlur in="SourceAlpha" stdDeviation="4"/><feOffset dx="0" dy="6"/><feComponentTransfer><feFuncA type="linear" slope="0.18"/></feComponentTransfer><feMerge><feMergeNode/><feMergeNode in="SourceGraphic"/></feMerge></filter>
<filter id="softShadow" x="-50%" y="-50%" width="200%" height="200%"><feGaussianBlur in="SourceAlpha" stdDeviation="2"/><feOffset dx="0" dy="3"/><feComponentTransfer><feFuncA type="linear" slope="0.15"/></feComponentTransfer><feMerge><feMergeNode/><feMergeNode in="SourceGraphic"/></feMerge></filter>
<filter id="glow" x="-100%" y="-100%" width="300%" height="300%"><feGaussianBlur stdDeviation="3"/><feMerge><feMergeNode/><feMergeNode in="SourceGraphic"/></feMerge></filter>
<pattern id="dotgrid" x="0" y="0" width="20" height="20" patternUnits="userSpaceOnUse"><circle cx="2" cy="2" r="1" fill="#E6E6E2"/></pattern>
</defs>
<linearGradient id="ladderBg" x1="0%" y1="0%" x2="0%" y2="100%"><stop offset="0%" stop-color="#F7F7F5"/><stop offset="100%" stop-color="#F0F0EE"/></linearGradient>
<linearGradient id="stepSide1" x1="0%" y1="0%" x2="100%" y2="0%"><stop offset="0%" stop-color="#E6E6E2"/><stop offset="100%" stop-color="#D5D5D0"/></linearGradient>
<linearGradient id="stepSide2" x1="0%" y1="0%" x2="100%" y2="0%"><stop offset="0%" stop-color="#D5D5D0"/><stop offset="100%" stop-color="#C7C7C2"/></linearGradient>
<linearGradient id="stepSide3" x1="0%" y1="0%" x2="100%" y2="0%"><stop offset="0%" stop-color="#0a0a0c"/><stop offset="100%" stop-color="#2d3036"/></linearGradient>
<radialGradient id="l3Glow" cx="50%" cy="0%" r="80%"><stop offset="0%" stop-color="#9BB5CC" stop-opacity="0.35"/><stop offset="100%" stop-color="#9BB5CC" stop-opacity="0"/></radialGradient>
<rect width="760" height="1060" fill="url(#ladderBg)"/>
<rect width="760" height="1060" fill="url(#dotgrid)" opacity="0.4"/>
<text x="60" y="80" font-size="11" letter-spacing="2.5" fill="#8B8F96" font-family="JetBrains Mono,monospace">— THE MATURITY LADDER</text>
<text x="60" y="148" font-size="40" font-weight="200" fill="#15161A">The climb</text>
<text x="60" y="196" font-size="40" font-weight="500" fill="#4E6E8E">to L3.</text>
<ellipse cx="600" cy="380" rx="240" ry="200" fill="url(#l3Glow)"/>
<g transform="translate(60,290)">
<g filter="url(#dropShadow)">
<path d="M 0 580 L 200 580 L 222 562 L 22 562 Z" fill="url(#stepSide1)"/>
<rect x="0" y="580" width="200" height="140" fill="url(#step1)" stroke="#E6E6E2"/>
</g>
<text x="20" y="618" font-size="10" letter-spacing="2.5" fill="#8B8F96" font-family="JetBrains Mono,monospace">L1</text>
<text x="20" y="662" font-size="20" font-weight="500" fill="#15161A">Execution Layer</text>
<text x="20" y="684" font-size="11" font-weight="300" fill="#5A5E66">Task-focused.</text>
<text x="20" y="700" font-size="11" font-weight="300" fill="#5A5E66">Dependent on direction.</text>
<g filter="url(#dropShadow)">
<path d="M 220 380 L 420 380 L 442 362 L 242 362 Z" fill="url(#stepSide2)"/>
<rect x="220" y="380" width="200" height="340" fill="url(#step2)" stroke="#E6E6E2"/>
</g>
<text x="240" y="418" font-size="10" letter-spacing="2.5" fill="#8B8F96" font-family="JetBrains Mono,monospace">L2</text>
<text x="240" y="462" font-size="20" font-weight="500" fill="#15161A">Engineering</text>
<text x="240" y="486" font-size="20" font-weight="500" fill="#15161A">Ownership</text>
<text x="240" y="510" font-size="11" font-weight="300" fill="#5A5E66">Self-directed quality.</text>
<text x="240" y="526" font-size="11" font-weight="300" fill="#5A5E66">Shaping the product.</text>
<g filter="url(#dropShadow)">
<path d="M 440 80 L 640 80 L 662 62 L 462 62 Z" fill="url(#stepSide3)"/>
<rect x="440" y="80" width="200" height="640" fill="url(#step3)"/>
</g>
<text x="460" y="118" font-size="10" letter-spacing="2.5" fill="#9BB5CC" font-family="JetBrains Mono,monospace">L3 · TARGET</text>
<text x="460" y="162" font-size="20" font-weight="500" fill="#FFFFFF">Strategic</text>
<text x="460" y="186" font-size="20" font-weight="500" fill="#FFFFFF">Partnership</text>
<text x="460" y="210" font-size="11" font-weight="300" fill="#9BB5CC">Business-aware.</text>
<text x="460" y="226" font-size="11" font-weight="300" fill="#9BB5CC">Driving innovation.</text>
<g transform="translate(540,640)">
<circle cx="0" cy="0" r="38" fill="none" stroke="#9BB5CC" opacity="0.2"/>
<circle cx="0" cy="0" r="26" fill="none" stroke="#9BB5CC" opacity="0.4"/>
<g filter="url(#glow)"><circle cx="0" cy="0" r="14" fill="#4E6E8E"/></g>
<text x="0" y="4" text-anchor="middle" font-size="10" letter-spacing="1" fill="#FFFFFF" font-family="JetBrains Mono,monospace">L3</text>
</g>
<path d="M 100 580 C 220 480 320 280 500 100" fill="none" stroke="#4E6E8E" stroke-width="1.5" stroke-dasharray="5 6"/>
<g fill="#4E6E8E" filter="url(#glow)">
<circle cx="100" cy="580" r="5"/>
<circle cx="320" cy="280" r="5"/>
<circle cx="500" cy="100" r="5"/>
</g>
<polygon points="500,100 488,116 508,114" fill="#4E6E8E"/>
</g>
<text x="60" y="1010" font-size="10" letter-spacing="2" fill="#8B8F96" font-family="JetBrains Mono,monospace">CRITERIA · KRA · A CONCRETE PATH FORWARD</text>
</svg>