<svg xmlns="http://www.w3.org/2000/svg" viewBox="0 0 560 380" font-family="Manrope,sans-serif"><defs>
<linearGradient id="bg" x1="0%" y1="0%" x2="0%" y2="100%"><stop offset="0%" stop-color="#FFFFFF"/><stop offset="100%" stop-color="#F0F0EE"/></linearGradient>
<linearGradient id="bgDark" x1="0%" y1="0%" x2="0%" y2="100%"><stop offset="0%" stop-color="#1d1f24"/><stop offset="100%" stop-color="#15161A"/></linearGradient>
<linearGradient id="node" x1="0%" y1="0%" x2="100%" y2="100%"><stop offset="0%" stop-color="#6889A8"/><stop offset="100%" stop-color="#4E6E8E"/></linearGradient>
<linearGradient id="nodeDark" x1="0%" y1="0%" x2="100%" y2="100%"><stop offset="0%" stop-color="#2c2f36"/><stop offset="100%" stop-color="#15161A"/></linearGradient>
<linearGradient id="accentGrad" x1="0%" y1="0%" x2="100%" y2="0%"><stop offset="0%" stop-color="#4E6E8E"/><stop offset="100%" stop-color="#9BB5CC"/></linearGradient>
<linearGradient id="step1" x1="0%" y1="0%" x2="0%" y2="100%"><stop offset="0%" stop-color="#FFFFFF"/><stop offset="100%" stop-color="#F0F0EE"/></linearGradient>
<linearGradient id="step2" x1="0%" y1="0%" x2="0%" y2="100%"><stop offset="0%" stop-color="#F0F0EE"/><stop offset="100%" stop-color="#E2E2DD"/></linearGradient>
<linearGradient id="step3" x1="0%" y1="0%" x2="0%" y2="100%"><stop offset="0%" stop-color="#2D3036"/><stop offset="100%" stop-color="#15161A"/></linearGradient>
<radialGradient id="centerGlow" cx="50%" cy="50%" r="50%"><stop offset="0%" stop-color="#4E6E8E" stop-opacity="0.22"/><stop offset="100%" stop-color="#4E6E8E" stop-opacity="0"/></radialGradient>
<radialGradient id="softGlow" cx="50%" cy="50%" r="50%"><stop offset="0%" stop-color="#9BB5CC" stop-opacity="0.35"/><stop offset="100%" stop-color="#9BB5CC" stop-opacity="0"/></radialGradient>
<filter id="dropShadow" x="-50%" y="-50%" width="200%" height="200%"><feGaussianBlur in="SourceAlpha" stdDeviation="4"/><feOffset dx="0" dy="6"/><feComponentTransfer><feFuncA type="linear" slope="0.18"/></feComponentTransfer><feMerge><feMergeNode/><feMergeNode in="SourceGraphic"/></feMerge></filter>
<filter id="softShadow" x="-50%" y="-50%" width="200%" height="200%"><feGaussianBlur in="SourceAlpha" stdDeviation="2"/><feOffset dx="0" dy="3"/><feComponentTransfer><feFuncA type="linear" slope="0.15"/></feComponentTransfer><feMerge><feMergeNode/><feMergeNode in="SourceGraphic"/></feMerge></filter>
<filter id="glow" x="-100%" y="-100%" width="300%" height="300%"><feGaussianBlur stdDeviation="3"/><feMerge><feMergeNode/><feMergeNode in="SourceGraphic"/></feMerge></filter>
<pattern id="dotgrid" x="0" y="0" width="20" height="20" patternUnits="userSpaceOnUse"><circle cx="2" cy="2" r="1" fill="#E6E6E2"/></pattern>
</defs>
<rect width="560" height="380" fill="url(#bgDark)"/>
<ellipse cx="400" cy="200" rx="200" ry="150" fill="url(#softGlow)"/>
<text x="30" y="46" font-size="10" letter-spacing="2.5" fill="#9BB5CC" font-family="JetBrains Mono,monospace">05 · AI IMPACT GUIDES</text>
<g transform="translate(80,210)">
<g stroke="#9BB5CC" stroke-width="0.6" opacity="0.35">
<line x1="0" y1="-60" x2="130" y2="-50"/><line x1="0" y1="-60" x2="130" y2="-10"/>
<line x1="0" y1="-20" x2="130" y2="-50"/><line x1="0" y1="-20" x2="130" y2="-10"/>
<line x1="0" y1="-20" x2="130" y2="30"/><line x1="0" y1="20" x2="130" y2="-10"/>
<line x1="0" y1="20" x2="130" y2="30"/><line x1="0" y1="20" x2="130" y2="70"/>
<line x1="0" y1="60" x2="130" y2="30"/><line x1="0" y1="60" x2="130" y2="70"/>
<line x1="130" y1="-50" x2="260" y2="-30"/><line x1="130" y1="-10" x2="260" y2="-30"/>
<line x1="130" y1="-10" x2="260" y2="10"/><line x1="130" y1="30" x2="260" y2="10"/>
<line x1="130" y1="30" x2="260" y2="50"/><line x1="130" y1="70" x2="260" y2="50"/>
<line x1="260" y1="-30" x2="380" y2="0"/><line x1="260" y1="10" x2="380" y2="0"/>
<line x1="260" y1="50" x2="380" y2="0"/>
</g>
<g fill="#9BB5CC" filter="url(#glow)">
<circle cx="0" cy="-60" r="9"/><circle cx="0" cy="-20" r="9"/>
<circle cx="0" cy="20" r="9"/><circle cx="0" cy="60" r="9"/>
</g>
<g fill="#4E6E8E" filter="url(#glow)">
<circle cx="130" cy="-50" r="9"/><circle cx="130" cy="-10" r="9"/>
<circle cx="130" cy="30" r="9"/><circle cx="130" cy="70" r="9"/>
</g>
<g fill="#FFFFFF" filter="url(#glow)">
<circle cx="260" cy="-30" r="9"/><circle cx="260" cy="10" r="9"/>
<circle cx="260" cy="50" r="9"/>
</g>
<g filter="url(#dropShadow)"><circle cx="380" cy="0" r="18" fill="#4E6E8E"/></g>
<circle cx="380" cy="0" r="28" fill="none" stroke="#9BB5CC" stroke-width="0.6" opacity="0.4"/>
<circle cx="380" cy="0" r="38" fill="none" stroke="#9BB5CC" stroke-width="0.4" opacity="0.25"/>
<g font-size="9" letter-spacing="1.5" font-family="JetBrains Mono,monospace" fill="#9BB5CC">
<text x="0" y="105">PHASE 1</text>
<text x="130" y="105">PHASE 2</text>
<text x="260" y="105">PHASE 3</text>
<text x="368" y="105" fill="#5A5E66"></text>
<text x="370" y="-30" fill="#FFFFFF">L3</text>
</g>
</g>
<text x="30" y="340" font-size="10" letter-spacing="1.5" fill="#9BB5CC" font-family="JetBrains Mono,monospace">NAVIGATING THE THREE PHASES OF AI</text>
</svg>