<svg xmlns="http://www.w3.org/2000/svg" viewBox="0 0 360 300" font-family="'Manrope','Segoe UI',system-ui,sans-serif">
<defs>
<linearGradient id="pg" x1="0" y1="0" x2="0" y2="1"><stop offset="0" stop-color="#FFFFFF"/><stop offset="1" stop-color="#F4F4F1"/></linearGradient>
<linearGradient id="acc" x1="0" y1="0" x2="1" y2="1"><stop offset="0" stop-color="#14b8a6"/><stop offset="1" stop-color="#0d9488"/></linearGradient>
<radialGradient id="halo" cx="0.5" cy="0.5" r="0.5"><stop offset="0" stop-color="#0d9488" stop-opacity="0.16"/><stop offset="1" stop-color="#0d9488" stop-opacity="0"/></radialGradient>
<filter id="sh" x="-30%" y="-30%" width="160%" height="160%"><feGaussianBlur in="SourceAlpha" stdDeviation="5"/><feOffset dy="7"/><feComponentTransfer><feFuncA type="linear" slope="0.10"/></feComponentTransfer><feMerge><feMergeNode/><feMergeNode in="SourceGraphic"/></feMerge></filter>
</defs>
<rect width="360" height="300" fill="url(#pg)"/>
<g stroke="#E2E2DD" stroke-width="1" opacity="0.45"><line x1="32" y1="0" x2="32" y2="300"/><line x1="64" y1="0" x2="64" y2="300"/><line x1="96" y1="0" x2="96" y2="300"/><line x1="128" y1="0" x2="128" y2="300"/><line x1="160" y1="0" x2="160" y2="300"/><line x1="192" y1="0" x2="192" y2="300"/><line x1="224" y1="0" x2="224" y2="300"/><line x1="256" y1="0" x2="256" y2="300"/><line x1="288" y1="0" x2="288" y2="300"/><line x1="320" y1="0" x2="320" y2="300"/><line x1="352" y1="0" x2="352" y2="300"/><line x1="0" y1="32" x2="360" y2="32"/><line x1="0" y1="64" x2="360" y2="64"/><line x1="0" y1="96" x2="360" y2="96"/><line x1="0" y1="128" x2="360" y2="128"/><line x1="0" y1="160" x2="360" y2="160"/><line x1="0" y1="192" x2="360" y2="192"/><line x1="0" y1="224" x2="360" y2="224"/><line x1="0" y1="256" x2="360" y2="256"/><line x1="0" y1="288" x2="360" y2="288"/></g>
<g stroke="#9AA0A8" stroke-width="1" opacity="0.6" fill="none"><path d="M30 39 V30 H39"/><path d="M321 30 H330 V39"/><path d="M30 261 V270 H39"/><path d="M330 261 V270 H321"/></g><text x="30" y="42" font-family="'JetBrains Mono','SFMono-Regular',ui-monospace,monospace" font-size="9.5" letter-spacing="2.2" fill="#0d9488">FOR · GROWTH</text><circle cx="180" cy="128" r="28" fill="none" stroke="#0d9488" stroke-width="2.2" opacity="0.90"/><circle cx="180" cy="128" r="50" fill="none" stroke="#0d9488" stroke-width="1.7" opacity="0.62"/><circle cx="180" cy="128" r="72" fill="none" stroke="#0d9488" stroke-width="1.2" opacity="0.34"/><circle cx="180" cy="128" r="10" fill="url(#acc)"/><path d="M180 128 l64 -64" fill="none" stroke="#0d9488" stroke-width="1.6"/><path d="M244 64 l-2 -16 l-14 2 Z" fill="url(#acc)"/><circle cx="117.64617092752042" cy="92.0" r="3.5" fill="#14b8a6"/><circle cx="242.35382907247956" cy="91.99999999999997" r="3.5" fill="#14b8a6"/><circle cx="180.0" cy="200.0" r="3.5" fill="#14b8a6"/><line x1="30" y1="254" x2="250" y2="254" stroke="#E2E2DD" stroke-width="1"/><text x="30" y="270" font-family="'Manrope','Segoe UI',system-ui,sans-serif" font-size="12.5" font-weight="600" fill="#15161A">Growth-Stage Orgs</text><text x="30" y="285" font-family="'JetBrains Mono','SFMono-Regular',ui-monospace,monospace" font-size="8.5" letter-spacing="1.4" fill="#9AA0A8">rigour · repeatability · results</text></svg>